<svg xml:space="preserve" viewBox="0 0 256 256" width="256" height="256" xmlns="http://www.w3.org/2000/svg"><path style="fill:#9f9e9f" d="M99.938 66.286v-.013h-.003Z"/><path style="opacity:.3;fill:#f4f4f5" d="m100.734 69.624-.796-3.338v3.338z"/><path style="fill:#d18770;stroke-width:.318594" d="M71.393 110.646c.03-2.216-1.826-8.037.962-12.8 2.786-4.763-14.66-6.007-23.497.108-8.51 5.887.612 10.954 6.227 9.84 11.379-2.26 16.25 7.34 16.308 2.852z"/><path style="fill:#dd8968;stroke-width:.318594" d="M65.439 84.069c.027 2.215-1.826 8.035.96 12.8 2.785 4.76-16.248 7.34-23.495-.109-7.248-7.45.611-10.952 6.229-9.838 11.371 2.257 16.244-7.342 16.306-2.853z"/><path style="fill:#74acf6;fill-opacity:1;stroke-width:.318594" d="M66.527 133.246c6.313-6.258 11.489-9.074 7.229-14.745-8.125-6.844-11.911-14.25-11.911-24.693 0-10.44 5.025-19.891 13.149-26.733 8.125-6.842 19.346-11.076 31.745-11.076 12.4 0 23.62 4.234 31.746 11.076 8.125 6.842 13.148 16.293 13.148 26.733 0 15.434-14.658 27.779-14.658 35.494-.917 3.088 5.497 6.947 13.741 6.947 8.25 0 35.735 5.4 55.89-16.976 5.305-6.175 11.72-2.7 10.997 6.171-.693 8.503-6.416 80.248-66.887 80.248h-48.56c-13.912 0-26.51-4.75-35.629-12.43-9.121-7.68-14.762-18.288-14.762-30.01 0-11.717 5.64-22.327 14.762-30.006"/><path style="fill:#fff;stroke-width:.288134" d="M88.817 87.211c0 4.903-3.86 8.876-8.618 8.876-4.76 0-8.62-3.973-8.62-8.876 0-4.897 3.86-8.872 8.62-8.872 4.757 0 8.618 3.975 8.618 8.872z"/><path style="fill:#646363;fill-opacity:1;stroke-width:1.17382" d="M85.426 87.475a5.283 5.846 0 0 1-5.27 5.845 5.283 5.846 0 0 1-5.295-5.818 5.283 5.846 0 0 1 5.245-5.873 5.283 5.846 0 0 1 5.32 5.791"/></svg>