<?xml version="1.0" encoding="UTF-8" standalone="no"?>
<svg
   xml:space="preserve"
   viewBox="0 0 256 256"
   width="256"
   height="256"
   version="1.1"
   id="svg18"
   sodipodi:docname="duck.svg"
   xmlns:inkscape="http://www.inkscape.org/namespaces/inkscape"
   xmlns:sodipodi="http://sodipodi.sourceforge.net/DTD/sodipodi-0.dtd"
   xmlns="http://www.w3.org/2000/svg"
   xmlns:svg="http://www.w3.org/2000/svg"><defs
     id="defs22" /><sodipodi:namedview
     id="namedview20"
     pagecolor="#ffffff"
     bordercolor="#000000"
     borderopacity="0.25"
     inkscape:showpageshadow="2"
     inkscape:pageopacity="0.0"
     inkscape:pagecheckerboard="0"
     inkscape:deskcolor="#d1d1d1"
     showgrid="false" /><path
     style="fill:#9f9e9f"
     d="M 99.938,66.286 V 66.273 H 99.935 Z"
     id="path4" /><path
     style="opacity:0.3;fill:#f4f4f5"
     d="m 100.734,69.624 -0.796,-3.338 v 3.338 z"
     id="path6" /><path
     style="fill:#d18770;stroke-width:0.318594"
     d="m 71.393,110.646 c 0.03,-2.216 -1.826,-8.037 0.962,-12.8 2.786,-4.763 -14.66,-6.007 -23.497,0.108 -8.51,5.887 0.612,10.954 6.227,9.84 11.379,-2.26 16.25,7.34 16.308,2.852 z"
     id="path8" /><path
     style="fill:#dd8968;stroke-width:0.318594"
     d="m 65.439,84.069 c 0.027,2.215 -1.826,8.035 0.96,12.8 2.785,4.76 -16.248,7.34 -23.495,-0.109 -7.248,-7.45 0.611,-10.952 6.229,-9.838 11.371,2.257 16.244,-7.342 16.306,-2.853 z"
     id="path10" /><path
     style="fill:#74acf6;fill-opacity:1;stroke-width:0.318594"
     d="m 66.527,133.246 c 6.313,-6.258 11.489,-9.074 7.229,-14.745 -8.125,-6.844 -11.911,-14.25 -11.911,-24.693 0,-10.44 5.025,-19.891 13.149,-26.733 8.125,-6.842 19.346,-11.076 31.745,-11.076 12.4,0 23.62,4.234 31.746,11.076 8.125,6.842 13.148,16.293 13.148,26.733 0,15.434 -14.658,27.779 -14.658,35.494 -0.917,3.088 5.497,6.947 13.741,6.947 8.25,0 35.735,5.4 55.89,-16.976 5.305,-6.175 11.72,-2.7 10.997,6.171 -0.693,8.503 -6.416,80.248 -66.887,80.248 h -48.56 c -13.912,0 -26.51,-4.75 -35.629,-12.43 -9.121,-7.68 -14.762,-18.288 -14.762,-30.01 0,-11.717 5.64,-22.327 14.762,-30.006"
     id="path12" /><path
     style="fill:#ffffff;stroke-width:0.288134"
     d="m 88.817,87.211 c 0,4.903 -3.86,8.876 -8.618,8.876 -4.76,0 -8.62,-3.973 -8.62,-8.876 0,-4.897 3.86,-8.872 8.62,-8.872 4.757,0 8.618,3.975 8.618,8.872 z"
     id="path14" /><path
     style="fill:#646363;fill-opacity:1;stroke-width:1.17382"
     d="m 85.426,87.475 a 5.283,5.846 0 0 1 -5.27,5.845 5.283,5.846 0 0 1 -5.295,-5.818 5.283,5.846 0 0 1 5.245,-5.873 5.283,5.846 0 0 1 5.32,5.791"
     id="path16" /></svg>
