<svg version="1.0" xmlns="http://www.w3.org/2000/svg" width="682.667" height="682.667" viewBox="0 0 512 512"><path d="M41.5 1C21.3 5.2 4.8 21.7 1 41.5c-.8 4.4-1 63.3-.8 218l.3 212 2.2 5.9c2.9 7.5 5.7 12 11.3 18 5.8 6.3 11.4 10 19.7 13.4l6.8 2.7 211 .3c151.5.2 212.9-.1 217.7-.8 17.9-3 32.7-15.4 39.9-33.5l2.4-6 .3-211c.2-151.4-.1-212.9-.9-217.7C508 25 495 9.5 477.4 2.8L471.5.5l-213-.1C141.3.3 43.7.6 41.5 1zm111.3 198.2-.3 14.3-36.2 21c-19.9 11.5-36.1 21.3-36 21.8.1.4 16.4 10.1 36.2 21.6l36 20.9.3 14.6.3 14.5-19.2-11c-10.5-6.1-38.1-22-61.2-35.4-23.2-13.4-42.3-24.7-42.4-25.2-.2-.7 120.1-71 122-71.2.4-.1.6 6.3.5 14.1zM420.7 220c33.4 19.2 60.8 35.4 60.8 36s-27.4 16.9-61 36.3l-61 35.3-.3-14.1c-.2-12.2 0-14.1 1.4-15.2 1-.7 17.4-10.4 36.6-21.5 19.1-11.2 34.8-20.5 34.8-20.8s-16.3-10-36.3-21.6l-36.2-21.1-.3-14.2c-.1-7.7-.1-14.1.2-14.1.2 0 27.8 15.7 61.3 35zM229 247.8c0 43.4.3 45.8 5.7 51.6 3.6 3.9 8.2 5.6 15.1 5.6 12 0 21.9-6.3 28.1-18.1 5.7-10.6 6.1-13.3 6.1-47.7V208h27l-.2 57.7-.3 57.8-11.6.3c-13.1.3-12.9.4-12.9-7.9 0-2-.3-5.7-.6-8.2l-.7-4.6-2.9 4.4c-10.6 16-35.8 24.4-55.1 18.5-8.4-2.6-16.4-9.6-20.4-17.8l-2.8-5.7-.3-47.3-.3-47.2H229v39.8z" fill="#2c2a4a"/></svg>