<svg version="1.0" xmlns="http://www.w3.org/2000/svg" width="682.667" height="682.667" viewBox="0 0 512 512"><path d="M0 256v256h512V0H0v256zm153-56.8-.1 14.3-36.4 21c-20 11.5-36.3 21.3-36.2 21.8.1.4 16.4 10.1 36.2 21.6l36 20.9.3 14.6.3 14.6-15.3-8.9c-8.4-4.8-32.6-18.8-53.8-31-54.7-31.6-54-31.2-54-31.9s120.9-71 122.3-71.1c.4-.1.7 6.3.7 14.1zM420.7 220c33.4 19.2 60.8 35.4 60.8 36s-27.4 16.9-61 36.3l-61 35.3-.3-14.1c-.2-12.2 0-14.1 1.4-15.2 1-.7 17.4-10.4 36.6-21.5 19.1-11.2 34.8-20.5 34.8-20.8s-16.3-10-36.3-21.6l-36.2-21.1-.3-14.2c-.1-7.7 0-14.1.2-14.1.3 0 27.8 15.7 61.3 35zm-109.9 45.8-.3 57.7-11.6.3c-13.1.3-12.9.4-12.9-7.9 0-2-.3-5.7-.6-8.2l-.7-4.6-2.9 4.4c-10.6 16-35.8 24.4-55.1 18.5-8.4-2.6-16.4-9.6-20.4-17.8l-2.8-5.7-.3-47.3-.3-47.2H229v39.8c0 33 .3 40.6 1.5 44.3 2.9 8.6 9.3 12.9 19 13 11.8.2 22.2-6.5 28.4-18.2 5.7-10.6 6.1-13.3 6.1-47.6 0-19.5.4-31.3 1-31.5.5-.2 6.6-.2 13.5 0l12.5.3-.2 57.7z"/></svg>