<svg viewBox="0 0 512 512" xmlns="http://www.w3.org/2000/svg"><path style="fill:#1d1e1e" d="M453.166 9.634v255.394c0 5.271-4.363 9.634-9.634 9.634H68.469c-5.272 0-9.634-4.363-9.634-9.634V9.634C58.835 4.302 63.197 0 68.469 0h375.063c5.271 0 9.634 4.302 9.634 9.634z" transform="translate(0 112)"/><path style="fill:#9f9e9f" d="M231.454 60.185v-.013h-.003z" transform="translate(0 112)"/><path style="opacity:.3;fill:#f4f4f5" d="m232.25 63.523-.796-3.338v3.338z" transform="translate(0 112)"/><path style="fill:#282828" d="M435.973 30.841v219.851c0 7.167-5.878 13.004-13.094 13.004H86.623c-.99 0-1.921-.115-2.852-.347-5.877-1.271-10.242-6.473-10.242-12.657V30.841c0-7.166 5.877-13.004 13.094-13.004h336.256c7.216 0 13.094 5.837 13.094 13.004z" transform="translate(0 112)"/><path style="fill:#333" d="M378.126 17.837 130.968 263.349h-55.17c-1.222 0-2.269-1.04-2.269-2.312V30.841c0-7.166 5.877-13.004 13.094-13.004z" transform="translate(0 112)"/><path style="fill:#c8c7c7" d="m512 252.728-.788 2.848-3.393 11.997c0 3.938-4.726 7.089-10.543 7.089H14.724c-5.817 0-10.543-3.151-10.543-7.089l-2.666-9.392-1.454-5.211-.061-.242Z" transform="translate(0 112)"/><path style="fill:#666767" d="M329.112 252.733a7.071 7.071 0 0 1-7.071 7.071H189.959a7.071 7.071 0 0 1-7.071-7.071z" transform="translate(0 112)"/><path style="opacity:.5;fill:#f4f4f5" d="M512 252.728v2.848H330.952c0 3.878-4.847 7.029-10.846 7.029H191.894c-5.999 0-10.846-3.151-10.846-7.029H0v-2.848h182.866c0 .616.204 1.165.352 1.733 1.154 3.085 5.273 5.356 10.252 5.356h125.061c4.979 0 9.098-2.271 10.251-5.356.147-.569.352-1.117.352-1.733z" transform="translate(0 112)"/><path style="opacity:.1;fill:#fff" d="m268.967 252.728-8.362 7.089-3.332 2.787-4.241 3.575-9.997 8.483H14.724c-5.817 0-10.543-3.151-10.543-7.089l-2.666-9.392-1.454-5.211-.061-.242Z" transform="translate(0 112)"/><path style="fill:#d18770;stroke-width:.318594" d="M202.909 104.545c.03-2.216-1.826-8.037.962-12.8 2.786-4.763-14.66-6.007-23.497.108-8.51 5.887.612 10.954 6.227 9.84 11.379-2.26 16.25 7.34 16.308 2.852z" transform="translate(0 112)"/><path style="fill:#dd8968;stroke-width:.318594" d="M196.955 77.968c.027 2.215-1.826 8.035.96 12.8 2.785 4.76-16.248 7.34-23.495-.109-7.248-7.45.611-10.952 6.229-9.838 11.371 2.257 16.244-7.342 16.306-2.853z" transform="translate(0 112)"/><path style="fill:#74acf6;fill-opacity:1;stroke-width:.318594" d="M198.043 127.145c6.313-6.258 11.489-9.074 7.229-14.745-8.125-6.844-11.911-14.25-11.911-24.693 0-10.44 5.025-19.891 13.149-26.733 8.125-6.842 19.346-11.076 31.745-11.076 12.4 0 23.62 4.234 31.746 11.076 8.125 6.842 13.148 16.293 13.148 26.733 0 15.434-14.658 27.779-14.658 35.494-.917 3.088 5.497 6.947 13.741 6.947 8.25 0 35.735 5.4 55.89-16.976 5.305-6.175 11.72-2.7 10.997 6.171-.693 8.503-6.416 80.248-66.887 80.248h-48.56c-13.912 0-26.51-4.75-35.629-12.43-9.121-7.68-14.762-18.288-14.762-30.01 0-11.717 5.64-22.327 14.762-30.006" transform="translate(0 112)"/><path style="fill:#fff;stroke-width:.288134" d="M220.333 81.11c0 4.903-3.86 8.876-8.618 8.876-4.76 0-8.62-3.973-8.62-8.876 0-4.897 3.86-8.872 8.62-8.872 4.757 0 8.618 3.975 8.618 8.872z" transform="translate(0 112)"/><path style="fill:#646363;fill-opacity:1;stroke-width:1.17382" d="M216.942 81.374a5.283 5.846 0 0 1-5.27 5.845 5.283 5.846 0 0 1-5.295-5.818 5.283 5.846 0 0 1 5.245-5.873 5.283 5.846 0 0 1 5.32 5.791" transform="translate(0 112)"/></svg>