<svg version="1.1" xmlns="http://www.w3.org/2000/svg" width="32" height="32" viewBox="0 0 32 32">
<title>at</title>
<path fill="none" stroke="#000" stroke-width="2.6667" stroke-miterlimit="4" stroke-linecap="round" stroke-linejoin="round" d="M21.333 16c0 2.946-2.388 5.333-5.333 5.333s-5.333-2.388-5.333-5.333c0-2.946 2.388-5.333 5.333-5.333s5.333 2.388 5.333 5.333z"></path>
<path fill="none" stroke="#000" stroke-width="2.6667" stroke-miterlimit="4" stroke-linecap="round" stroke-linejoin="round" d="M21.333 10.667v6.667c0 2.209 1.791 4 4 4s4-1.791 4-4v0-1.333c-0-7.363-5.97-13.332-13.333-13.332s-13.333 5.97-13.333 13.333 5.97 13.333 13.333 13.333c3.064 0 5.886-1.033 8.138-2.77l-0.031 0.023"></path>
</svg>
