<svg version="1.1" xmlns="http://www.w3.org/2000/svg" width="32" height="32" viewBox="0 0 32 32">
<title>codepen</title>
<path d="M24.192 17.423v-2.845l-2.125 1.423zM25.893 19.015c-0 0.039-0.003 0.078-0.009 0.115l0.001-0.004-0.007 0.037-0.015 0.071-0.013 0.041c-0.007 0.021-0.013 0.041-0.023 0.063l-0.019 0.040c-0.011 0.026-0.021 0.044-0.031 0.063l0.003-0.006-0.025 0.040c-0.032 0.050-0.067 0.094-0.107 0.133l-0 0-0.035 0.033c-0.014 0.013-0.030 0.026-0.046 0.039l-0.002 0.001-0.039 0.029-0.013 0.011-9.043 6.029c-0.133 0.090-0.296 0.143-0.472 0.143s-0.339-0.053-0.475-0.145l0.003 0.002-9.056-6.041c-0.032-0.023-0.061-0.045-0.087-0.070l0.001 0-0.035-0.033-0.043-0.045-0.028-0.037c-0.033-0.043-0.063-0.091-0.087-0.142l-0.002-0.005-0.019-0.041c-0.006-0.015-0.014-0.035-0.021-0.057l-0.002-0.006-0.013-0.040c-0.005-0.024-0.011-0.048-0.013-0.072l-0.008-0.037c-0.005-0.033-0.008-0.071-0.008-0.11v-6.028c0-0.037 0.003-0.073 0.008-0.111l0.007-0.036 0.015-0.072 0.013-0.040c0.034-0.112 0.089-0.209 0.161-0.29l-0.001 0.001 0.041-0.045 0.035-0.033c0.026-0.024 0.054-0.047 0.084-0.068l0.003-0.002 0.013-0.011 9.043-6.028c0.133-0.090 0.296-0.143 0.472-0.143s0.339 0.053 0.475 0.145l-0.003-0.002 9.143 6.108c0.013 0.011 0.023 0.021 0.035 0.033 0.040 0.039 0.075 0.083 0.105 0.13l0.002 0.003 0.025 0.040c0.008 0.014 0.017 0.033 0.026 0.052l0.002 0.005 0.019 0.040c0.009 0.021 0.016 0.043 0.023 0.063l0.013 0.041c0.005 0.024 0.011 0.048 0.013 0.072l0.008 0.036c0.005 0.033 0.008 0.071 0.008 0.11v0zM16 0c-8.836 0-16 7.163-16 16 0 8.836 7.164 16 16 16 8.837 0 16-7.163 16-16 0-8.836-7.163-16-16-16zM16 13.989l-3.007 2.011 3.007 2.013 3.007-2.013zM16.851 19.488v3.967l6.661-4.44-2.976-1.991zM8.488 19.013l6.661 4.44v-3.965l-3.685-2.465zM23.512 12.987l-6.661-4.44v3.965l3.685 2.467zM15.149 12.512v-3.965l-6.661 4.44 2.976 1.991zM7.808 14.577v2.845l2.125-1.423z"></path>
</svg>
