<!-- Generated by IcoMoon.io -->
<svg version="1.1" xmlns="http://www.w3.org/2000/svg" width="32" height="32" viewBox="0 0 32 32">
<title>github</title>
<path fill="none" stroke="#000" stroke-width="2.6667" stroke-miterlimit="4" stroke-linecap="round" stroke-linejoin="round" d="M12 25.333c-6.667 2-6.667-3.333-9.333-4M21.333 29.333v-5.16c0.009-0.105 0.014-0.228 0.014-0.352 0-1.216-0.483-2.32-1.268-3.129l0.001 0.001c4.187-0.467 8.587-2.053 8.587-9.333-0-1.94-0.762-3.702-2.003-5.003l0.003 0.003c0.27-0.702 0.427-1.515 0.427-2.364 0-0.962-0.201-1.878-0.564-2.707l0.017 0.044s-1.573-0.467-5.213 1.973c-1.399-0.394-3.007-0.621-4.667-0.621s-3.267 0.227-4.792 0.651l0.125-0.030c-3.64-2.44-5.213-1.973-5.213-1.973-0.346 0.785-0.547 1.701-0.547 2.663 0 0.849 0.157 1.661 0.442 2.41l-0.016-0.046c-1.238 1.299-2 3.061-2 5.001 0 0.014 0 0.027 0 0.041v-0.002c0 7.227 4.4 8.813 8.587 9.333-0.782 0.808-1.264 1.91-1.264 3.125 0 0.111 0.004 0.221 0.012 0.33l-0.001-0.015v5.16"></path>
</svg>
