<!-- Generated by IcoMoon.io -->
<svg version="1.1" xmlns="http://www.w3.org/2000/svg" width="32" height="32" viewBox="0 0 32 32">
<title>gitlab</title>
<path fill="none" stroke="#000" stroke-width="2.6667" stroke-miterlimit="4" stroke-linecap="round" stroke-linejoin="round" d="M30.2 19.187l-14.2 10.32-14.2-10.32c-0.278-0.206-0.456-0.533-0.456-0.902 0-0.126 0.021-0.246 0.059-0.359l-0.002 0.008 1.627-5.040 3.253-10.013c0.033-0.084 0.083-0.156 0.146-0.213l0-0c0.102-0.093 0.237-0.15 0.387-0.15s0.285 0.057 0.387 0.15l-0-0c0.067 0.065 0.117 0.145 0.146 0.236l0.001 0.004 3.253 9.987h10.8l3.253-10.013c0.033-0.084 0.083-0.156 0.146-0.213l0-0c0.102-0.093 0.237-0.15 0.387-0.15s0.285 0.057 0.387 0.15l-0-0c0.067 0.065 0.117 0.145 0.146 0.236l0.001 0.004 3.253 10.013 1.693 5.013c0.028 0.094 0.045 0.202 0.045 0.313 0 0.392-0.202 0.738-0.507 0.938l-0.004 0.003z"></path>
</svg>
