<!-- Generated by IcoMoon.io -->
<svg version="1.1" xmlns="http://www.w3.org/2000/svg" width="32" height="32" viewBox="0 0 32 32">
<title>globe</title>
<path fill="none" stroke="#000" stroke-width="2.6667" stroke-miterlimit="4" stroke-linecap="round" stroke-linejoin="round" d="M29.333 16c0 7.364-5.97 13.333-13.333 13.333s-13.333-5.97-13.333-13.333c0-7.364 5.97-13.333 13.333-13.333s13.333 5.97 13.333 13.333z"></path>
<path fill="none" stroke="#000" stroke-width="2.6667" stroke-miterlimit="4" stroke-linecap="round" stroke-linejoin="round" d="M2.667 16h26.667"></path>
<path fill="none" stroke="#000" stroke-width="2.6667" stroke-miterlimit="4" stroke-linecap="round" stroke-linejoin="round" d="M16 2.667c3.216 3.512 5.223 8.178 5.333 13.311l0 0.022c-0.111 5.155-2.117 9.822-5.347 13.349l0.014-0.015c-3.216-3.512-5.223-8.178-5.333-13.311l-0-0.022c0.111-5.155 2.117-9.822 5.347-13.349l-0.014 0.015z"></path>
</svg>
