<svg version="1.1" xmlns="http://www.w3.org/2000/svg" width="32" height="32" viewBox="0 0 32 32">
<title>link</title>
<path fill="none" stroke="#000" stroke-width="2.6667" stroke-miterlimit="4" stroke-linecap="round" stroke-linejoin="round" d="M13.333 17.333c1.229 1.63 3.162 2.673 5.338 2.673 1.841 0 3.508-0.747 4.715-1.953l4-4c1.158-1.198 1.871-2.831 1.871-4.631 0-3.682-2.985-6.667-6.667-6.667-1.8 0-3.434 0.714-4.633 1.873l0.002-0.002-2.293 2.28"></path>
<path fill="none" stroke="#000" stroke-width="2.6667" stroke-miterlimit="4" stroke-linecap="round" stroke-linejoin="round" d="M18.667 14.667c-1.229-1.63-3.162-2.673-5.338-2.673-1.841 0-3.508 0.747-4.715 1.953l-4 4c-1.158 1.198-1.871 2.831-1.871 4.631 0 3.682 2.985 6.667 6.667 6.667 1.8 0 3.434-0.714 4.633-1.873l-0.002 0.002 2.28-2.28"></path>
</svg>
