<svg version="1.1" xmlns="http://www.w3.org/2000/svg" width="32" height="32" viewBox="0 0 32 32">
<title>mastodon</title>
<path d="M31.024 7.084c-0.467-3.437-3.489-6.147-7.072-6.672-0.605-0.089-2.896-0.412-8.201-0.412h-0.040c-5.307 0-6.447 0.323-7.051 0.412-3.484 0.511-6.665 2.945-7.437 6.424-0.369 1.713-0.409 3.613-0.341 5.355 0.099 2.499 0.117 4.993 0.347 7.481 0.157 1.653 0.433 3.293 0.827 4.907 0.733 2.983 3.703 5.464 6.613 6.476 3.115 1.056 6.465 1.231 9.675 0.507 0.353-0.081 0.703-0.176 1.048-0.284 0.78-0.245 1.693-0.52 2.365-1.004 0.018-0.013 0.029-0.034 0.031-0.057v-2.412c0 0 0 0 0-0 0-0.022-0.010-0.042-0.027-0.055l-0-0c-0.012-0.010-0.027-0.015-0.044-0.015-0.006 0-0.012 0.001-0.018 0.002l0-0c-1.87 0.462-4.018 0.727-6.227 0.727-0.018 0-0.036-0-0.054-0h0.003c-3.64 0-4.617-1.712-4.899-2.424-0.212-0.559-0.362-1.207-0.423-1.882l-0.002-0.029c-0-0.001-0-0.002-0-0.003 0-0.039 0.032-0.071 0.071-0.071 0.006 0 0.012 0.001 0.018 0.002l-0.001-0c2.023 0.484 4.096 0.728 6.176 0.728 0.501 0 1 0 1.5-0.013 2.093-0.059 4.299-0.165 6.357-0.563 0.051-0.011 0.103-0.020 0.147-0.032 3.247-0.619 6.337-2.56 6.652-7.472 0.011-0.193 0.040-2.027 0.040-2.227 0.003-0.683 0.223-4.84-0.032-7.393zM26.027 19.344h-3.415v-8.291c0-1.745-0.733-2.635-2.227-2.635-1.64 0-2.461 1.053-2.461 3.133v4.537h-3.395v-4.539c0-2.080-0.823-3.133-2.464-3.133-1.483 0-2.224 0.891-2.227 2.636v8.291h-3.409v-8.541c0-1.747 0.449-3.133 1.348-4.16 0.928-1.027 2.144-1.552 3.653-1.552 1.748 0 3.069 0.667 3.949 1.997l0.851 1.413 0.851-1.413c0.88-1.332 2.2-1.997 3.947-1.997 1.507 0 2.724 0.527 3.653 1.552 0.9 1.027 1.349 2.413 1.349 4.16z"></path>
</svg>
