<svg version="1.1" xmlns="http://www.w3.org/2000/svg" width="32" height="32" viewBox="0 0 32 32">
<title>more</title>
<path d="M16 1.667c7.916 0 14.333 6.417 14.333 14.333v0c0 7.916-6.417 14.333-14.333 14.333v0c-7.916 0-14.333-6.417-14.333-14.333v0c0-7.916 6.417-14.333 14.333-14.333v0zM16 4.533c-6.333 0-11.467 5.134-11.467 11.467v0c0 6.333 5.134 11.467 11.467 11.467v0c6.333 0 11.467-5.134 11.467-11.467v0c0-6.333-5.134-11.467-11.467-11.467v0zM16 13.85c1.187 0 2.15 0.963 2.15 2.15v0c0 1.187-0.963 2.15-2.15 2.15v0c-1.187 0-2.15-0.963-2.15-2.15v0c0-1.187 0.963-2.15 2.15-2.15v0zM9.55 13.85c1.187 0 2.15 0.963 2.15 2.15v0c0 1.187-0.963 2.15-2.15 2.15v0c-1.187 0-2.15-0.963-2.15-2.15v0c0-1.187 0.963-2.15 2.15-2.15v0zM22.45 13.85c1.187 0 2.15 0.963 2.15 2.15v0c0 1.187-0.963 2.15-2.15 2.15v0c-1.187 0-2.15-0.963-2.15-2.15v0c0-1.187 0.963-2.15 2.15-2.15v0z"></path>
</svg>