<!-- Generated by IcoMoon.io -->
<svg version="1.1" xmlns="http://www.w3.org/2000/svg" width="32" height="32" viewBox="0 0 32 32">
<title>palette</title>
<path d="M16 29.583c-7.502 0-13.583-6.081-13.583-13.583v0c0-7.502 6.081-13.583 13.583-13.583v0c7.471 0 13.583 5.433 13.583 12.225 0 4.501-3.649 8.15-8.15 8.15v0h-2.445c-0.407 0-0.679 0.272-0.679 0.679 0 0.136 0.136 0.272 0.136 0.407 0.543 0.679 0.815 1.494 0.815 2.309 0.136 1.902-1.358 3.396-3.26 3.396zM16 5.133c-6.001 0-10.867 4.865-10.867 10.867v0c0 6.001 4.865 10.867 10.867 10.867v0c0.407 0 0.679-0.272 0.679-0.679 0-0.272-0.136-0.407-0.136-0.543-0.543-0.679-0.815-1.358-0.815-2.173 0-1.902 1.494-3.396 3.396-3.396h2.309c3.001 0 5.433-2.433 5.433-5.433v0c0-5.297-4.89-9.508-10.867-9.508zM8.529 13.283c1.087 0 2.037 0.951 2.037 2.037s-0.951 2.037-2.037 2.037c-1.087 0-2.037-0.951-2.037-2.037s0.951-2.037 2.037-2.037zM12.604 7.85c1.087 0 2.037 0.951 2.037 2.037s-0.951 2.037-2.037 2.037c-1.087 0-2.037-0.951-2.037-2.037s0.951-2.037 2.037-2.037zM19.396 7.85c1.087 0 2.038 0.951 2.038 2.037s-0.951 2.037-2.038 2.037c-1.087 0-2.038-0.951-2.038-2.037s0.951-2.037 2.038-2.037zM23.471 13.283c1.087 0 2.038 0.951 2.038 2.037s-0.951 2.037-2.038 2.037c-1.087 0-2.038-0.951-2.038-2.037s0.951-2.037 2.038-2.037z"></path>
</svg>
