<svg version="1.1" xmlns="http://www.w3.org/2000/svg" width="32" height="32" viewBox="0 0 32 32">
<title>rubyonrails</title>
<path d="M10.031 10.375c-0.249 0-0.509 0.015-0.776 0.047l0.155 0.477c0.233-0.024 0.468-0.032 0.703-0.032h0.080l-0.16-0.492zM13.117 10.852l-0.032 0.533c0.267 0.089 0.525 0.184 0.784 0.289l0.035-0.539c-0.073-0.040-0.277-0.139-0.787-0.284zM6.467 11.159c-0.28 0.143-0.487 0.258-0.689 0.379l0.059-0.032 0.373 0.568c0.209-0.129 0.411-0.253 0.621-0.357l-0.364-0.556zM10.32 11.188c-0.038-0.001-0.083-0.001-0.128-0.001-0.262 0-0.521 0.013-0.776 0.040l0.032-0.003c-0.591 0.053-1.212 0.225-1.84 0.5-1.891 0.824-3.837 2.557-5.111 4.68-1.273 2.121-1.721 4-1.867 4.804-0.049 0.269-0.067 0.417-0.067 0.417h6.387s-0.076-0.347-0.128-0.904c-0.028-0.292-0.044-0.632-0.044-0.976v-0c0-0.733 0.073-1.604 0.325-2.477 0.063-0.217 0.137-0.437 0.224-0.653s0.187-0.428 0.3-0.639c0.227-0.419 0.508-0.824 0.861-1.192s0.779-0.7 1.284-0.981c0.331-0.16 0.931-0.487 1.795-0.652 0.288-0.055 0.604-0.093 0.951-0.101 0.347-0.007 0.723 0.016 1.127 0.080 0.808 0.129 1.731 0.427 2.767 0.987 0.517 0.281 1.064 0.627 1.637 1.051 0.147-0.12 0.281-0.216 0.281-0.216s-0.261-0.263-0.729-0.648c-0.467-0.387-1.137-0.896-1.956-1.391-0.408-0.248-0.856-0.493-1.331-0.717-0.41-0.2-0.908-0.399-1.422-0.564l-0.084-0.023c-0.462-0.15-1.015-0.276-1.583-0.354l-0.052-0.006c-0.251-0.033-0.546-0.055-0.846-0.060l-0.007-0zM13.101 13.388l-0.031 0.511c0.267 0.008 0.533 0.040 0.8 0.096l0.033-0.5c-0.23-0.050-0.505-0.088-0.786-0.106l-0.017-0.001zM11.211 13.583c-0.275 0.081-0.508 0.169-0.711 0.259l0.185 0.557c0.233-0.113 0.468-0.209 0.703-0.281l-0.177-0.533zM3.2 13.615c-0.209 0.201-0.413 0.404-0.599 0.607l0.623 0.533c0.169-0.217 0.356-0.436 0.549-0.637l-0.573-0.503zM8.987 14.812c-0.187 0.171-0.355 0.356-0.5 0.543l0.388 0.58c0.137-0.201 0.299-0.387 0.477-0.573l-0.365-0.549zM10.305 15.861v5.764h1.552v-1.391l1.343 1.391h2.295l-1.801-1.819s1.413-0.12 1.413-1.947c0-1.827-1.713-1.999-1.713-1.999h-3.088zM17.361 15.904c-1.123 0-1.501 1.017-1.501 1.503v4.219h1.575v-1.011h1.48v1.011h1.528v-4.219c0-1.229-1.117-1.503-1.505-1.503h-1.576zM21.161 15.904v5.72h1.64v-5.72h-1.64zM23.472 15.904v5.721h3.84v-1.48h-2.208v-4.241h-1.632zM29.284 15.904c-0.647 0-1.511 0.532-1.511 1.525v0.511c0 0.995 0.856 1.503 1.511 1.503 1.819 0.008-0.436 0 1.244 0v0.711l-2.673 0.008v1.464h2.643c0.541 0 1.471-0.396 1.503-1.503v-0.565c0-0.947-0.775-1.505-1.503-1.505h-1.317v-0.677h2.609v-1.471h-2.507zM7.557 17.067c-0.084 0.236-0.168 0.533-0.234 0.838l-0.009 0.050 0.653 0.517c0.033-0.315 0.092-0.629 0.173-0.945l-0.584-0.46zM17.919 17.267h0.543c0.436 0 0.445 0.315 0.445 0.315v1.4h-1.48v-1.4s0-0.315 0.493-0.315zM11.857 17.308h1.244s0.349 0.129 0.349 0.653c0 0.527-0.357 0.665-0.357 0.665h-1.236v-1.319zM0.404 17.389c-0.153 0.347-0.323 0.751-0.404 0.969l0.929 0.34c0.107-0.275 0.275-0.672 0.404-0.971l-0.929-0.339zM7.193 20.007c0.016 0.428 0.057 0.779 0.099 1.020l0.968 0.347c-0.070-0.276-0.137-0.632-0.186-0.994l-0.006-0.055-0.875-0.317z"></path>
</svg>
