<svg version="1.1" xmlns="http://www.w3.org/2000/svg" width="32" height="32" viewBox="0 0 32 32">
<title>solid</title>
<path d="M15.411 1.051c-0.848 0.012-1.667 0.11-2.456 0.284l0.080-0.015-0.604 0.2c-1.208 0.404-2.208 1.007-2.8 1.797l-0.401 0.603-2.713 4.704c0.568-0.516 1.299-0.931 2.191-1.192h0.001l0.819-0.205c0.707-0.163 1.523-0.263 2.361-0.275l0.009-0c3.888-0.071 8.044 1.531 11.231 3.147 3.089 1.567 5.184 3.093 5.316 3.187l3.557-5.928c-0.109-0.080-2.213-1.613-5.321-3.181-3.191-1.608-7.361-3.195-11.267-3.124zM11.899 7.155c-0.831 0.012-1.632 0.11-2.404 0.285l0.077-0.015-0.808 0.201c-1.704 0.501-2.793 1.547-3.24 2.811-0.445 1.264-0.251 2.753 0.649 4.155 0.44 0.573 0.996 1.084 1.621 1.529l8.644-2.788c0.786-0.242 1.69-0.381 2.627-0.381 2.023 0 3.894 0.649 5.417 1.75l-0.027-0.019 3.792-1.284c-0.227-0.165-2.217-1.6-5.213-3.12-3.172-1.608-7.305-3.195-11.136-3.125zM19.145 13.151c-0.017-0-0.038-0-0.058-0-0.923 0-1.813 0.138-2.651 0.394l0.064-0.017-12.58 4.057-3.92 6.86 12.368-3.989c0.793-0.246 1.704-0.387 2.649-0.387 2.916 0 5.517 1.348 7.215 3.454l0.014 0.018v0.001c0.927 1.204 1.187 2.541 0.88 3.744l3.429-6.173c0.793-1.388 0.6-2.967-0.403-4.572-1.662-2.060-4.179-3.372-7.003-3.391l-0.003-0zM15.104 20.272c-0.026-0-0.057-0-0.087-0-0.923 0-1.813 0.138-2.651 0.395l0.064-0.017-12.419 4.007c0.233 0.175 2.693 1.997 6.249 3.691 3.729 1.776 8.493 3.289 12.624 2.283l0.605-0.203h0.003c1.704-0.501 2.845-1.549 3.316-2.787 0.471-1.24 0.276-2.672-0.721-3.971-1.655-2.057-4.163-3.369-6.978-3.397l-0.005-0z"></path>
</svg>
