<svg version="1.1" xmlns="http://www.w3.org/2000/svg" width="32" height="32" viewBox="0 0 32 32">
<title>tauri</title>
<path d="M20.876 23.043c1.52-0.313 2.867-0.88 4.061-1.661l-0.045 0.027c1.873-1.223 3.345-2.919 4.266-4.921l0.030-0.072c0.649-1.404 1.027-3.048 1.027-4.779 0-0.616-0.048-1.221-0.14-1.811l0.008 0.066c-0.36-2.315-1.356-4.35-2.801-5.977l0.010 0.012c-1.51-1.678-3.449-2.892-5.608-3.496-0.94-0.273-2.019-0.43-3.136-0.43-1.232 0-2.42 0.191-3.535 0.546l0.082-0.023c-2.207 0.698-4.067 1.967-5.468 3.635l-0.015 0.018c-0.945 1.125-1.689 2.454-2.155 3.909l-0.023 0.082c1.298-0.649 2.808-1.108 4.402-1.29l0.063-0.006c1.031-1.425 2.479-2.492 4.164-3.028l0.058-0.016c0.725-0.233 1.56-0.368 2.426-0.368 0.784 0 1.543 0.11 2.261 0.316l-0.058-0.014c1.569 0.448 2.9 1.305 3.916 2.448l0.007 0.008c1.008 1.135 1.708 2.565 1.955 4.146l0.006 0.046c0.059 0.368 0.092 0.793 0.092 1.226 0 1.217-0.266 2.372-0.743 3.409l0.021-0.051c-0.668 1.458-1.702 2.65-2.987 3.49l-0.031 0.019c-0.503 0.33-1.081 0.619-1.693 0.837l-0.057 0.018c0.040 0.329 0.061 0.665 0.061 1.005 0 0.003 0 0.006 0 0.009 0 0.957-0.165 1.875-0.467 2.727l0.018-0.057zM18.573 14.684c1.684 0 3.049-1.365 3.049-3.048s-1.365-3.048-3.049-3.048-3.049 1.364-3.049 3.048c0 1.683 1.365 3.048 3.049 3.048zM11.155 8.951c-1.532 0.311-2.89 0.881-4.093 1.667l0.045-0.027c-1.873 1.223-3.345 2.919-4.266 4.921l-0.030 0.072c-0.649 1.404-1.027 3.048-1.027 4.779 0 0.616 0.048 1.22 0.14 1.81l-0.008-0.066c0.36 2.315 1.356 4.35 2.801 5.977l-0.010-0.012c1.456 1.64 3.351 2.859 5.501 3.476l0.082 0.020c0.94 0.273 2.020 0.43 3.136 0.43 1.232 0 2.42-0.191 3.534-0.546l-0.082 0.023c2.207-0.698 4.067-1.967 5.468-3.635l0.015-0.018c0.948-1.128 1.693-2.462 2.159-3.92l0.023-0.082c-1.298 0.653-2.809 1.114-4.403 1.299l-0.063 0.006c-0.133 0.184-0.255 0.341-0.382 0.492l0.010-0.013c-0.995 1.184-2.302 2.076-3.794 2.551l-0.058 0.016c-0.725 0.233-1.56 0.368-2.426 0.368-0.784 0-1.543-0.11-2.261-0.316l0.058 0.014c-1.569-0.448-2.9-1.305-3.916-2.448l-0.007-0.008c-1.008-1.135-1.708-2.565-1.955-4.146l-0.006-0.046c-0.059-0.369-0.093-0.794-0.093-1.226 0-1.217 0.266-2.372 0.743-3.409l-0.021 0.051c0.668-1.458 1.702-2.65 2.987-3.49l0.031-0.019c0.493-0.324 1.060-0.608 1.658-0.824l0.057-0.018c-0.030-0.263-0.047-0.568-0.047-0.877 0-0.001 0-0.001 0-0.002v0c0-0.993 0.177-1.944 0.501-2.824zM13.422 17.316c-1.684 0-3.049 1.365-3.049 3.048s1.365 3.047 3.049 3.047c1.684 0 3.049-1.364 3.049-3.047s-1.365-3.048-3.049-3.048z"></path>
</svg>
