<svg version="1.1" xmlns="http://www.w3.org/2000/svg" width="32" height="32" viewBox="0 0 32 32">
<title>twitter</title>
<path d="M31.937 6.093c-1.096 0.496-2.368 0.86-3.701 1.027l-0.065 0.007c1.355-0.824 2.374-2.085 2.871-3.584l0.013-0.047c-1.268 0.74-2.673 1.279-4.169 1.579-1.2-1.281-2.903-2.079-4.791-2.079-3.623 0-6.56 2.937-6.56 6.56 0 0.53 0.063 1.046 0.182 1.54l-0.009-0.045c-5.453-0.257-10.284-2.877-13.52-6.835-0.558 0.933-0.888 2.058-0.888 3.261 0 0.014 0 0.028 0 0.042v-0.002c0 2.28 1.16 4.284 2.917 5.461-1.096-0.036-2.114-0.336-3.003-0.838l0.033 0.017v0.080c0 0.001 0 0.002 0 0.003 0 3.164 2.239 5.805 5.219 6.426l0.043 0.007c-0.517 0.144-1.111 0.227-1.724 0.227-0.433 0-0.857-0.041-1.267-0.12l0.042 0.007c0.868 2.628 3.278 4.501 6.132 4.556l0.007 0c-2.213 1.75-5.044 2.807-8.122 2.807-0.005 0-0.010 0-0.014 0h0.001c-0.52 0-1.039-0.031-1.56-0.089 2.846 1.847 6.326 2.945 10.062 2.945 0.005 0 0.010 0 0.015 0h-0.001c12.071 0 18.664-9.995 18.664-18.647 0-0.28 0-0.56-0.020-0.84 1.293-0.938 2.382-2.064 3.25-3.35l0.030-0.047z"></path>
</svg>
