<svg version="1.1" xmlns="http://www.w3.org/2000/svg" width="32" height="32" viewBox="0 0 32 32">
<title>wrench</title>
<path fill="none" stroke="#000" stroke-width="2.6667" stroke-miterlimit="4" stroke-linecap="round" stroke-linejoin="round" d="M19.6 8.4c-0.236 0.24-0.381 0.57-0.381 0.933s0.145 0.693 0.381 0.934l2.133 2.133c0.24 0.236 0.57 0.381 0.933 0.381s0.693-0.145 0.934-0.381l5.026-5.026c0.449 0.969 0.712 2.103 0.712 3.298 0 4.418-3.582 8-8 8-1.195 0-2.329-0.262-3.348-0.732l0.050 0.021-9.213 9.213c-0.512 0.512-1.219 0.828-2 0.828-1.562 0-2.828-1.266-2.828-2.828 0-0.781 0.317-1.488 0.828-2l9.213-9.213c-0.449-0.969-0.712-2.103-0.712-3.298 0-4.418 3.582-8 8-8 1.195 0 2.329 0.262 3.348 0.732l-0.050-0.021-5.013 5.013z"></path>
</svg>
