<svg xmlns="http://www.w3.org/2000/svg" viewBox="0 0 50 50"><path d="M 13.662109 8.8613281 A 1.0001 1.0001 0 0 0 13.244141 8.9433594 C 8.3530338 11.057733 4.9335936 15.931277 4.9335938 21.587891 C 4.9335938 24.332998 5.7523123 26.888088 7.140625 29.039062 C 6.0254881 30.091537 4.8472118 31.383026 3.8242188 32.720703 C 2.6021211 34.318731 1.597648 35.899577 1.2714844 37.373047 A 1.0001 1.0001 0 0 0 1.2714844 37.375 C 0.95083505 38.82604 2.5138399 40.125547 3.8789062 39.519531 L 3.7148438 39.576172 L 7.7460938 38.578125 C 8.4033776 38.415821 9.0885042 38.310949 9.7734375 38.259766 C 17.816514 37.654628 22.96958 36.272055 26.380859 34.921875 C 29.792139 33.571695 31.601261 32.225938 32.269531 31.970703 C 33.434163 31.526094 34.65057 31.226561 35.802734 31.234375 C 36.762553 31.240575 38.645477 31.199464 40.382812 31.152344 C 40.519248 31.148696 40.647676 31.116398 40.78125 31.101562 C 45.553965 30.821446 48.951172 29.116537 48.951172 27.917969 C 48.950172 27.226969 48.500609 26.843891 47.849609 26.712891 C 46.331453 26.406906 45.85251 26.138825 44.208984 24.972656 C 42.705083 23.41071 40.934222 22.636912 39.083984 22.470703 C 38.375162 22.407033 37.654447 22.431593 36.933594 22.533203 C 35.096345 22.791948 34.005197 23.384112 33.212891 23.767578 C 32.420584 24.151044 31.9896 24.355984 30.755859 24.212891 A 1.0001 1.0001 0 0 0 30.75 24.212891 L 28.552734 23.970703 A 1.0001423 1.0001423 0 0 0 28.494141 23.876953 C 27.437681 22.390389 26.950651 20.968662 26.919922 19.287109 C 26.889192 17.605557 27.346863 15.637726 28.318359 13.208984 A 1.0001 1.0001 0 0 0 27.455078 11.839844 C 24.97097 11.678436 22.477139 12.52336 20.4375 13.792969 C 18.9178 14.738932 17.631787 15.911607 16.818359 17.214844 C 15.500484 14.887074 14.77203 12.485942 14.640625 9.8125 A 1.0001 1.0001 0 0 0 13.662109 8.8613281 z M 12.927734 11.462891 C 13.733941 17.358614 17.214056 22.20103 23.056641 27.353516 A 1.0004441 1.0004441 0 1 0 24.380859 25.853516 C 24.236363 25.726086 24.113944 25.605038 23.972656 25.478516 L 30.53125 26.201172 C 32.12181 26.384159 33.214782 25.987089 34.083984 25.566406 C 34.954428 25.145123 35.663139 24.731927 37.212891 24.513672 C 39.467963 24.195791 41.268245 24.670628 42.974609 26.628906 C 42.825503 28.004472 41.758014 29.116117 40.330078 29.154297 A 1.0001 1.0001 0 0 0 40.328125 29.154297 C 38.599461 29.201177 36.700588 29.240125 35.816406 29.234375 C 34.314571 29.224185 32.868055 29.602125 31.554688 30.103516 C 30.185956 30.626281 28.850251 31.79368 25.644531 33.0625 C 22.438811 34.33132 17.502971 35.672763 9.6230469 36.265625 C 8.8359802 36.324445 8.0442942 36.444977 7.2675781 36.636719 L 3.3339844 37.609375 C 3.5752502 36.74632 4.3355264 35.345852 5.4140625 33.935547 C 6.3136052 32.759295 7.3689704 31.592251 8.3476562 30.648438 C 8.5916303 30.927153 8.8401188 31.202927 9.1054688 31.460938 A 1.0001 1.0001 0 1 0 10.5 30.027344 C 8.2996572 27.887865 6.9335937 24.903573 6.9335938 21.587891 C 6.9335936 17.205115 9.3865897 13.489582 12.927734 11.462891 z M 25.962891 14.005859 C 25.317354 15.919394 24.890187 17.697022 24.919922 19.324219 C 24.948249 20.874429 25.32591 22.324741 26.039062 23.693359 L 21.572266 23.201172 C 20.216565 21.83968 19.035599 20.505731 18.078125 19.171875 C 18.481808 18.0343 19.772978 16.561602 21.494141 15.490234 C 22.843269 14.650446 24.419805 14.179988 25.962891 14.005859 z"/></svg>