<?xml version="1.0" standalone="no"?>
<!DOCTYPE svg PUBLIC "-//W3C//DTD SVG 20010904//EN"
 "http://www.w3.org/TR/2001/REC-SVG-20010904/DTD/svg10.dtd">
<svg version="1.0" xmlns="http://www.w3.org/2000/svg"
 width="700.000000pt" height="700.000000pt" viewBox="0 0 700.000000 700.000000"
 preserveAspectRatio="xMidYMid meet">
<metadata>
Created by potrace 1.14, written by Peter Selinger 2001-2017
</metadata>
<g transform="translate(0.000000,700.000000) scale(0.100000,-0.100000)"
fill="#000000" stroke="none">
<path d="M2675 5444 c-415 -74 -740 -306 -897 -641 -34 -72 -47 -89 -86 -114
-108 -69 -165 -78 -397 -69 -66 3 -87 0 -122 -18 -74 -38 -92 -95 -54 -170 18
-36 111 -132 128 -132 4 0 14 -4 22 -9 11 -7 10 -17 -9 -55 -19 -41 -21 -50
-10 -77 14 -33 58 -70 105 -90 20 -8 88 -13 195 -13 201 -1 230 -10 281 -88
18 -28 71 -91 118 -140 100 -103 110 -120 111 -172 0 -62 -36 -109 -211 -276
-89 -85 -186 -186 -215 -225 -534 -714 -22 -1641 976 -1764 139 -18 1598 -14
1743 4 561 69 989 389 1270 951 147 293 253 655 303 1034 25 192 24 294 -4
352 -26 52 -74 88 -116 88 -53 0 -101 -32 -215 -143 -303 -294 -632 -418
-1109 -417 -455 0 -634 33 -717 132 -54 64 -23 159 132 408 110 177 172 298
209 410 25 77 28 99 28 230 1 159 -14 235 -74 366 -145 320 -496 569 -899 638
-118 20 -374 20 -486 0z m-359 -620 c30 -18 60 -48 79 -78 27 -44 30 -58 30
-130 0 -90 -12 -122 -67 -176 -74 -74 -175 -90 -269 -42 -161 81 -181 307 -37
415 49 36 86 47 154 44 48 -2 73 -9 110 -33z"/>
<path d="M2130 4752 c-100 -55 -107 -215 -11 -279 93 -63 216 17 214 138 -2
116 -111 191 -203 141z"/>
</g>
</svg>
