<svg xmlns="http://www.w3.org/2000/svg" viewBox="0 0 24 24" fill="#fff"><path d="M4.512 0h14.976A4.512 4.512 0 0 1 24 4.512v14.976A4.512 4.512 0 0 1 19.488 24H4.512A4.512 4.512 0 0 1 0 19.488V4.512A4.512 4.512 0 0 1 4.512 0z" style="stroke:none;fill:orange"/><path class="symbol" d="M8.992 18.017a3.007 3.007 0 0 1-2.976 2.976 3.007 3.007 0 0 1-3.007-2.976 3.007 3.007 0 0 1 5.983 0z"/><path class="symbol" d="M3.007 12a8.992 8.992 0 0 1 8.992 8.992h3.007a12 12 0 0 0-11.999-12z"/><path class="symbol" d="M3.007 6.017a15.008 15.008 0 0 1 15.008 15.008h3.007A18.017 18.017 0 0 0 3.007 3.007z"/></svg>