<svg aria-hidden="true" style="position: absolute; width: 0; height: 0; overflow: hidden;" version="1.1" xmlns="http://www.w3.org/2000/svg" xmlns:xlink="http://www.w3.org/1999/xlink">
<defs>
<symbol id="icon-mail" viewBox="0 0 32 32">
<path d="M29.728 26.848v-13.696q-0.576 0.64-1.248 1.152-4.768 3.68-7.616 6.048-0.896 0.768-1.472 1.184t-1.536 0.896-1.824 0.416h-0.064q-0.832 0-1.824-0.416t-1.536-0.896-1.472-1.184q-2.816-2.368-7.616-6.048-0.672-0.512-1.248-1.152v13.696q0 0.224 0.192 0.416t0.384 0.16h26.304q0.224 0 0.384-0.16t0.192-0.416zM29.728 8.096v-0.448t-0.032-0.224-0.032-0.224-0.096-0.16-0.16-0.128-0.256-0.064h-26.304q-0.224 0-0.384 0.192t-0.192 0.384q0 3.008 2.656 5.088 3.424 2.688 7.136 5.632 0.128 0.096 0.64 0.544t0.8 0.672 0.8 0.544 0.896 0.512 0.768 0.16h0.064q0.352 0 0.768-0.16t0.896-0.512 0.8-0.544 0.8-0.672 0.64-0.544q3.712-2.944 7.168-5.632 0.96-0.768 1.792-2.080t0.832-2.336zM32 7.424v19.424q0 1.184-0.832 2.016t-2.016 0.864h-26.304q-1.152 0-2.016-0.864t-0.832-2.016v-19.424q0-1.184 0.832-2.016t2.016-0.832h26.304q1.184 0 2.016 0.832t0.832 2.016z"></path>
</symbol>
<symbol id="icon-clock" viewBox="0 0 29 32">
<path d="M14.5 26.667c5.891 0 10.667-4.776 10.667-10.667v0c0-5.891-4.776-10.667-10.667-10.667v0c-5.891 0-10.667 4.776-10.667 10.667v0c0 5.891 4.776 10.667 10.667 10.667v0zM14.5 2.667c7.364 0 13.333 5.97 13.333 13.333v0c0 7.364-5.97 13.333-13.333 13.333v0c-7.373 0-13.333-6-13.333-13.333 0-7.364 5.97-13.333 13.333-13.333v0zM15.167 9.333v7l6 3.56-1 1.64-7-4.2v-8h2z"></path>
</symbol>
<symbol id="icon-tags" viewBox="0 0 34 32">
<path d="M8.667 13.333c1.067 0 2-0.933 2-2s-0.933-2-2-2-2 0.933-2 2 0.933 2 2 2zM12 8l9.333 9.333-6.667 6.667-9.333-9.333v-6.667h6.667zM12 5.333h-6.667c-1.467 0-2.667 1.2-2.667 2.667v6.667c0 0.8 0.267 1.467 0.8 1.867l9.333 9.333c0.4 0.533 1.067 0.8 1.867 0.8s1.467-0.267 1.867-0.8l6.667-6.667c0.533-0.533 0.8-1.2 0.8-1.867 0-0.8-0.267-1.467-0.8-1.867l-9.333-9.333c-0.4-0.533-1.067-0.8-1.867-0.8zM18 7.6l1.333-1.333 9.2 9.2c0.533 0.533 0.8 1.2 0.8 1.867s-0.267 1.467-0.8 1.867l-7.2 7.2-1.333-1.333 7.6-7.733-9.6-9.733z"></path>
</symbol>
<symbol id="icon-info" viewBox="0 0 32 32">
<path d="M14.667 12h2.667v-2.667h-2.667zM16 26.667c-5.88 0-10.667-4.787-10.667-10.667s4.787-10.667 10.667-10.667c5.88 0 10.667 4.787 10.667 10.667s-4.787 10.667-10.667 10.667zM16 2.667c-7.364 0-13.333 5.97-13.333 13.333v0c0 7.364 5.97 13.333 13.333 13.333v0c7.364 0 13.333-5.97 13.333-13.333v0c0-7.364-5.97-13.333-13.333-13.333v0zM14.667 22.667h2.667v-8h-2.667v8z"></path>
</symbol>
<symbol id="icon-link" viewBox="0 0 26 32">
<path d="M3.445 16c0-2.017 1.64-3.657 3.657-3.657h4.719v-2.241h-4.719c-3.257 0-5.898 2.641-5.898 5.898v0c0 3.258 2.641 5.898 5.898 5.898v0h4.719v-2.241h-4.719c-2.017 0-3.657-1.64-3.657-3.657zM8.282 17.18h9.437v-2.359h-9.437v2.359zM18.899 10.102h-4.719v2.241h4.719c2.017 0 3.657 1.64 3.657 3.657s-1.64 3.657-3.657 3.657h-4.719v2.241h4.719c3.258 0 5.898-2.641 5.898-5.898v0c0-3.258-2.641-5.898-5.898-5.898v0z"></path>
</symbol>
<symbol id="icon-chart" viewBox="0 0 37 32">
<path d="M23.833 15.707l5.653-9.773 2.307 1.333-6.973 12.067-8.68-5-6.36 11h22.053v2.667h-26.667v-24h2.667v19.387l7.333-12.72 8.667 5.040z"></path>
</symbol>
<symbol id="icon-tag" viewBox="0 0 27 32">
<path d="M26.047 15.44l-12-12c-0.482-0.478-1.145-0.773-1.878-0.773-0.001 0-0.002 0-0.002 0h-9.333c-1.473 0-2.667 1.194-2.667 2.667v0 9.333c0 0.001 0 0.001 0 0.002 0 0.739 0.301 1.408 0.787 1.891l12 12c0.482 0.478 1.145 0.773 1.878 0.773 0.001 0 0.002 0 0.002 0h-0c0.735-0.003 1.399-0.303 1.88-0.787l9.333-9.333c0.483-0.481 0.783-1.145 0.787-1.879v-0.001c0-0.001 0-0.001 0-0.002 0-0.739-0.301-1.408-0.787-1.891l-0-0zM14.833 26.667l-12-12v-9.333h9.333l12 12zM6.167 6.667c1.105 0 2 0.895 2 2s-0.895 2-2 2c-1.105 0-2-0.895-2-2v0c0-1.105 0.895-2 2-2v0z"></path>
</symbol>
<symbol id="icon-heart" viewBox="0 0 32 32">
<path d="M29.728 10.656q0-1.472-0.384-2.56t-0.992-1.76-1.472-1.056-1.664-0.576-1.76-0.128-1.984 0.448-1.984 1.152-1.536 1.28-1.088 1.088q-0.32 0.416-0.864 0.416t-0.864-0.416q-0.448-0.48-1.088-1.088t-1.536-1.28-1.984-1.152-1.984-0.448-1.76 0.128-1.664 0.576-1.472 1.056-0.992 1.76-0.384 2.56q0 2.976 3.36 6.336l10.368 9.984 10.368-9.984q3.36-3.36 3.36-6.336zM32 10.656q0 3.936-4.096 8.032l-11.104 10.72q-0.32 0.32-0.8 0.32t-0.8-0.32l-11.136-10.752q-0.16-0.16-0.48-0.48t-0.992-1.184-1.216-1.728-0.96-2.144-0.416-2.464q0-3.936 2.272-6.144t6.272-2.24q1.088 0 2.24 0.384t2.144 1.056 1.728 1.216 1.344 1.216q0.64-0.64 1.344-1.216t1.728-1.216 2.144-1.056 2.24-0.384q4 0 6.272 2.24t2.272 6.144z"></path>
</symbol>
<symbol id="icon-visible" viewBox="0 0 32 32">
<path d="M16 12c2.209 0 4 1.791 4 4v0c0 2.209-1.791 4-4 4v0c-2.209 0-4-1.791-4-4v0c0-2.209 1.791-4 4-4v0zM16 6c6.667 0 12.36 4.147 14.667 10-2.307 5.853-8 10-14.667 10s-12.36-4.147-14.667-10c2.307-5.853 8-10 14.667-10zM4.24 16c2.2 4.48 6.747 7.333 11.76 7.333s9.56-2.853 11.76-7.333c-2.2-4.48-6.747-7.333-11.76-7.333s-9.56 2.853-11.76 7.333z"></path>
</symbol>
<symbol id="icon-hidden" viewBox="0 0 32 32">
<path d="M2.667 7.027l1.707-1.693 22.293 22.293-1.693 1.707-4.107-4.107c-1.533 0.507-3.16 0.773-4.867 0.773-6.667 0-12.36-4.147-14.667-10 0.92-2.347 2.387-4.413 4.253-6.053l-2.92-2.92zM16 12c2.209 0 4 1.791 4 4v0c0 0.467-0.080 0.92-0.227 1.333l-5.107-5.107c0.413-0.147 0.867-0.227 1.333-0.227zM16 6c6.667 0 12.36 4.147 14.667 10-1.093 2.773-2.947 5.173-5.333 6.92l-1.893-1.907c1.813-1.253 3.307-2.96 4.32-5.013-2.2-4.48-6.747-7.333-11.76-7.333-1.453 0-2.88 0.24-4.213 0.667l-2.053-2.040c1.92-0.827 4.040-1.293 6.267-1.293zM4.24 16c2.2 4.48 6.747 7.333 11.76 7.333 0.92 0 1.827-0.093 2.667-0.28l-3.040-3.053c-1.907-0.2-3.427-1.72-3.627-3.627l-4.533-4.547c-1.32 1.133-2.427 2.547-3.227 4.173z"></path>
</symbol>
<symbol id="icon-pin" viewBox="0 0 21 32">
<path d="M15.833 16v-10.667h1.333v-2.667h-13.333v2.667h1.333v10.667l-2.667 2.667v2.667h6.933v8h2.133v-8h6.933v-2.667l-2.667-2.667zM6.233 18.667l1.6-1.6v-11.733h5.333v11.733l1.6 1.6h-8.533z"></path>
</symbol>
<symbol id="icon-list" viewBox="0 0 32 32">
<path d="M9.333 6.667h18.667v2.667h-18.667v-2.667zM9.333 17.333v-2.667h18.667v2.667h-18.667zM5.333 6c1.105 0 2 0.895 2 2v0c0 1.105-0.895 2-2 2v0c-1.105 0-2-0.895-2-2v0c0-1.105 0.895-2 2-2v0zM5.333 14c1.105 0 2 0.895 2 2v0c0 1.105-0.895 2-2 2v0c-1.105 0-2-0.895-2-2v0c0-1.105 0.895-2 2-2v0zM9.333 25.333v-2.667h18.667v2.667h-18.667zM5.333 22c1.105 0 2 0.895 2 2v0c0 1.105-0.895 2-2 2v0c-1.105 0-2-0.895-2-2v0c0-1.105 0.895-2 2-2v0z"></path>
</symbol>
<symbol id="icon-sun" viewBox="0 0 30 32">
<path d="M14.88 12.416q-1.472 0-2.528 1.056t-1.056 2.528 1.056 2.496 2.528 1.056 2.496-1.056 1.056-2.496-1.056-2.528-2.496-1.056zM14.88 8.832q2.944 0 5.056 2.112t2.080 5.056-2.080 5.056-5.056 2.080-5.056-2.080-2.112-5.056 2.112-5.056 5.056-2.112zM13.088 3.456q0-1.76 1.76-1.76 1.824 0 1.824 1.76 0 1.824-1.824 1.824-1.76 0-1.76-1.824zM4.16 7.040q0-1.76 1.792-1.76 1.76 0 1.76 1.76 0 1.792-1.76 1.792-1.792 0-1.792-1.792zM2.368 14.176q0.736 0 1.28 0.512t0.512 1.28-0.512 1.28-1.28 0.512-1.28-0.512-0.512-1.28q0-0.768 0.512-1.28t1.28-0.512zM4.16 24.896q0-1.76 1.792-1.76 1.76 0 1.76 1.76 0 1.792-1.76 1.792-1.792 0-1.792-1.792zM13.088 28.48q0-0.704 0.544-1.248t1.216-0.544q0.768 0 1.312 0.544t0.512 1.248-0.544 1.28-1.248 0.544-1.248-0.544-0.544-1.28zM22.56 26.176q-0.512-0.512-0.512-1.248t0.512-1.248 1.248-0.544 1.28 0.544 0.48 1.248-0.48 1.248-1.28 0.48-1.248-0.48zM27.392 17.76q-0.768 0-1.28-0.512t-0.544-1.28q0-0.768 0.544-1.28t1.28-0.512 1.248 0.512 0.512 1.28-0.512 1.28-1.248 0.512zM25.088 8.32q-0.512 0.512-1.28 0.512t-1.248-0.512-0.512-1.28 0.512-1.28 1.248-0.544 1.28 0.544 0.48 1.28-0.48 1.28z"></path>
</symbol>
<symbol id="icon-edit" viewBox="0 0 27 32">
<path d="M16.747 12l1.253 1.253-12.107 12.080h-1.227v-1.227l12.080-12.107zM21.547 4c-0.333 0-0.68 0.133-0.933 0.387l-2.44 2.44 5 5 2.44-2.44c0.52-0.52 0.52-1.387 0-1.88l-3.12-3.12c-0.267-0.267-0.6-0.387-0.947-0.387zM16.747 8.253l-14.747 14.747v5h5l14.747-14.747-5-5z"></path>
</symbol>
<symbol id="icon-checkbox" viewBox="0 0 32 32">
<path d="M25.333 4h-18.667c-1.473 0-2.667 1.194-2.667 2.667v0 18.667c0 1.473 1.194 2.667 2.667 2.667v0h18.667c1.473 0 2.667-1.194 2.667-2.667v0-18.667c0-1.473-1.194-2.667-2.667-2.667v0zM25.333 6.667v18.667h-18.667v-18.667h18.667zM13.333 22.667l-5.333-5.333 1.88-1.893 3.453 3.453 8.787-8.787 1.88 1.893z"></path>
</symbol>
<symbol id="icon-checkbox-not" viewBox="0 0 25 32">
<path d="M21.242 4.75h-17.5c-1.387 0-2.5 1.112-2.5 2.5v17.5c0 1.381 1.119 2.5 2.5 2.5v0h17.5c1.381 0 2.5-1.119 2.5-2.5v0-17.5c0-1.387-1.125-2.5-2.5-2.5zM21.242 7.25v17.5h-17.5v-17.5h17.5z"></path>
</symbol>
<symbol id="icon-star" viewBox="0 0 30 32">
<path d="M20.32 17.92l5.44-5.312-7.52-1.088-3.392-6.816-3.36 6.816-7.552 1.088 5.472 5.312-1.312 7.52 6.752-3.552 6.752 3.552zM29.728 11.552q0 0.384-0.48 0.864l-6.464 6.304 1.536 8.928q0 0.128 0 0.384 0 0.896-0.736 0.896-0.32 0-0.704-0.224l-8.032-4.224-8 4.224q-0.384 0.224-0.736 0.224t-0.544-0.288-0.192-0.608q0-0.128 0.032-0.384l1.536-8.928-6.496-6.304q-0.448-0.48-0.448-0.864 0-0.672 0.992-0.832l8.96-1.28 4.032-8.128q0.352-0.736 0.864-0.736t0.896 0.736l4 8.128 8.96 1.28q1.024 0.16 1.024 0.832z"></path>
</symbol>
<symbol id="icon-page" viewBox="0 0 27 32">
<path d="M26.208 6.784q0.512 0.512 0.864 1.344t0.352 1.6v20.544q0 0.736-0.48 1.216t-1.216 0.512h-24q-0.736 0-1.216-0.512t-0.512-1.216v-28.544q0-0.736 0.512-1.216t1.216-0.512h16q0.704 0 1.568 0.352t1.344 0.864zM18.272 2.432v6.72h6.72q-0.16-0.544-0.384-0.736l-5.6-5.6q-0.192-0.224-0.736-0.384zM25.152 29.728v-18.304h-7.424q-0.736 0-1.216-0.512t-0.512-1.184v-7.456h-13.728v27.456h22.88z"></path>
</symbol>
<symbol id="icon-cut" viewBox="0 0 32 32">
<path d="M17.152 16q0.448 0 0.8 0.352t0.32 0.8-0.32 0.8-0.8 0.32-0.8-0.32-0.352-0.8 0.352-0.8 0.8-0.352zM22.496 17.152l9.056 7.104q0.512 0.352 0.448 0.992-0.096 0.64-0.608 0.896l-2.304 1.152q-0.224 0.128-0.512 0.128-0.32 0-0.544-0.128l-12.32-6.912-1.984 1.152q-0.128 0.096-0.224 0.096 0.256 0.896 0.192 1.728-0.128 1.376-0.992 2.656t-2.368 2.208q-2.368 1.504-4.928 1.504-2.432 0-3.968-1.408-1.632-1.504-1.408-3.712 0.128-1.344 0.992-2.624t2.336-2.208q2.368-1.504 4.96-1.504 1.472 0 2.688 0.576 0.16-0.256 0.416-0.416l2.176-1.28-2.176-1.312q-0.256-0.16-0.416-0.384-1.216 0.544-2.688 0.544-2.592 0-4.96-1.504-1.472-0.96-2.336-2.208t-0.992-2.624q-0.096-1.056 0.256-2.016t1.152-1.664q1.504-1.408 3.968-1.408 2.56 0 4.928 1.504 1.472 0.928 2.368 2.176t0.992 2.656q0.064 0.864-0.192 1.728 0.096 0.032 0.224 0.096l1.984 1.184 12.32-6.912q0.224-0.16 0.544-0.16 0.288 0 0.512 0.128l2.304 1.152q0.512 0.288 0.608 0.896 0.064 0.64-0.448 1.024zM10.336 12.512q0.832-0.768 0.384-1.952t-1.888-2.080q-1.664-1.056-3.424-1.056-1.344 0-2.016 0.64-0.832 0.768-0.384 1.92t1.888 2.112q1.632 1.056 3.424 1.056 1.312 0 2.016-0.64zM8.832 25.792q1.44-0.896 1.888-2.080t-0.384-1.92q-0.704-0.64-2.016-0.64-1.792 0-3.424 1.056-1.44 0.896-1.888 2.080t0.384 1.92q0.672 0.64 2.016 0.64 1.76 0 3.424-1.056zM12 14.848l1.728 1.056v-0.224q0-0.64 0.576-0.992l0.256-0.128-1.408-0.832-0.48 0.448q-0.032 0.064-0.16 0.192t-0.224 0.224q-0.032 0.032-0.064 0.064t-0.064 0.032zM16 18.848l1.728 0.576 13.12-10.272-2.272-1.152-13.728 7.68v2.048l-2.848 1.696 0.16 0.16q0.032 0.032 0.128 0.096 0.064 0.064 0.192 0.224t0.192 0.192l0.48 0.48zM28.576 26.272l2.272-1.12-9.28-7.296-3.168 2.464q-0.032 0.064-0.224 0.128z"></path>
</symbol>
<symbol id="icon-bookmark" viewBox="0 0 23 32">
<path d="M20.576 4.576h-18.304v22.176l9.152-8.768 1.6 1.504 7.552 7.264v-22.176zM20.8 2.272q0.384 0 0.768 0.16 0.608 0.256 0.928 0.736t0.352 1.12v23.008q0 0.608-0.352 1.12t-0.928 0.736q-0.32 0.128-0.768 0.128-0.864 0-1.504-0.576l-7.872-7.552-7.872 7.552q-0.64 0.608-1.472 0.608-0.416 0-0.8-0.16-0.576-0.224-0.928-0.736t-0.352-1.12v-23.008q0-0.608 0.352-1.12t0.928-0.736q0.384-0.16 0.8-0.16h18.72z"></path>
</symbol>
<symbol id="icon-pages" viewBox="0 0 32 32">
<path d="M30.272 6.848q0.736 0 1.216 0.512t0.512 1.216v21.696q0 0.736-0.512 1.216t-1.216 0.512h-17.12q-0.736 0-1.216-0.512t-0.512-1.216v-5.12h-9.696q-0.736 0-1.216-0.512t-0.512-1.216v-12q0-0.704 0.352-1.568t0.864-1.344l7.296-7.296q0.48-0.512 1.344-0.864t1.568-0.352h7.424q0.736 0 1.216 0.512t0.512 1.216v5.856q1.216-0.736 2.272-0.736h7.424zM20.576 10.656l-5.344 5.344h5.344v-5.344zM9.152 3.808l-5.344 5.344h5.344v-5.344zM12.64 15.36l5.632-5.632v-7.456h-6.848v7.456q0 0.704-0.48 1.184t-1.216 0.512h-7.456v11.424h9.152v-4.576q0-0.704 0.352-1.568t0.864-1.344zM29.728 29.728v-20.576h-6.88v7.424q0 0.704-0.48 1.216t-1.216 0.48h-7.424v11.456h16z"></path>
</symbol>
<symbol id="icon-up" viewBox="0 0 21 32">
<path d="M19.2 21.152q0 0.224-0.192 0.384l-0.896 0.896q-0.16 0.192-0.384 0.192t-0.416-0.192l-7.040-7.008-7.008 7.008q-0.16 0.192-0.416 0.192t-0.384-0.192l-0.896-0.896q-0.192-0.16-0.192-0.384t0.192-0.416l8.32-8.32q0.16-0.192 0.384-0.192t0.416 0.192l8.32 8.32q0.192 0.16 0.192 0.416z"></path>
</symbol>
<symbol id="icon-folder" viewBox="0 0 30 32">
<path d="M27.424 23.424v-12.576q0-0.704-0.48-1.216t-1.216-0.48h-12.576q-0.736 0-1.216-0.512t-0.512-1.216v-1.152q0-0.704-0.48-1.216t-1.216-0.48h-5.728q-0.704 0-1.216 0.48t-0.512 1.216v17.152q0 0.704 0.512 1.216t1.216 0.512h21.728q0.704 0 1.216-0.512t0.48-1.216zM29.728 10.848v12.576q0 1.632-1.184 2.816t-2.816 1.184h-21.728q-1.632 0-2.816-1.184t-1.184-2.816v-17.152q0-1.632 1.184-2.816t2.816-1.184h5.728q1.632 0 2.816 1.184t1.184 2.816v0.576h12q1.632 0 2.816 1.184t1.184 2.816z"></path>
</symbol>
<symbol id="icon-folder-open" viewBox="0 0 34 32">
<path d="M31.808 16.608q0-0.608-0.96-0.608h-19.424q-0.704 0-1.536 0.384t-1.248 0.928l-5.248 6.496q-0.352 0.416-0.352 0.704 0 0.64 0.96 0.64h19.424q0.736 0 1.536-0.416t1.28-0.928l5.248-6.496q0.32-0.384 0.32-0.704zM11.424 13.728h13.728v-2.88q0-0.704-0.512-1.216t-1.216-0.48h-10.272q-0.736 0-1.216-0.512t-0.512-1.216v-1.152q0-0.704-0.48-1.216t-1.216-0.48h-5.728q-0.704 0-1.216 0.48t-0.512 1.216v15.232l4.576-5.6q0.8-0.96 2.080-1.568t2.496-0.608zM34.080 16.608q0 1.12-0.8 2.144l-5.28 6.496q-0.768 0.96-2.080 1.568t-2.496 0.608h-19.424q-1.632 0-2.816-1.184t-1.184-2.816v-17.152q0-1.632 1.184-2.816t2.816-1.184h5.728q1.632 0 2.816 1.184t1.184 2.816v0.576h9.696q1.664 0 2.816 1.184t1.184 2.816v2.88h3.424q0.96 0 1.792 0.416t1.184 1.28q0.256 0.544 0.256 1.184z"></path>
</symbol>
<symbol id="icon-calendar" viewBox="0 0 30 32">
<path d="M2.272 29.728h25.152v-18.304h-25.152v18.304zM9.152 8v-5.152q0-0.256-0.16-0.416t-0.416-0.16h-1.152q-0.256 0-0.416 0.16t-0.16 0.416v5.152q0 0.256 0.16 0.416t0.416 0.16h1.152q0.256 0 0.416-0.16t0.16-0.416zM22.848 8v-5.152q0-0.256-0.16-0.416t-0.416-0.16h-1.12q-0.256 0-0.416 0.16t-0.16 0.416v5.152q0 0.256 0.16 0.416t0.416 0.16h1.12q0.256 0 0.416-0.16t0.16-0.416zM29.728 6.848v22.88q0 0.928-0.704 1.6t-1.6 0.672h-25.152q-0.928 0-1.6-0.672t-0.672-1.6v-22.88q0-0.928 0.672-1.6t1.6-0.672h2.304v-1.728q0-1.184 0.832-2.016t2.016-0.832h1.152q1.184 0 2.016 0.832t0.832 2.016v1.728h6.848v-1.728q0-1.184 0.864-2.016t2.016-0.832h1.12q1.184 0 2.048 0.832t0.832 2.016v1.728h2.272q0.928 0 1.6 0.672t0.704 1.6z"></path>
</symbol>
<symbol id="icon-moon" viewBox="0 0 27 32">
<path d="M22.528 23.264q-0.96 0.16-1.952 0.16-3.264 0-6.016-1.6t-4.384-4.384-1.6-6.016q0-3.424 1.856-6.368-3.584 1.056-5.856 4.096t-2.304 6.848q0 2.304 0.928 4.448t2.432 3.616 3.648 2.464 4.448 0.896q2.56 0 4.864-1.088t3.936-3.072zM26.176 21.76q-1.696 3.616-5.088 5.792t-7.36 2.176q-2.784 0-5.344-1.088t-4.352-2.944-2.944-4.384-1.088-5.312q0-2.72 1.024-5.216t2.784-4.32 4.224-2.944 5.152-1.216q0.8-0.032 1.088 0.704 0.352 0.736-0.256 1.28-1.536 1.376-2.336 3.232t-0.832 3.904q0 2.656 1.312 4.864t3.552 3.552 4.864 1.312q2.112 0 4.064-0.928 0.736-0.32 1.28 0.224 0.256 0.256 0.32 0.608t-0.064 0.704z"></path>
</symbol>
<symbol id="icon-archive" viewBox="0 0 32 32">
<path d="M26.667 28h-21.333v-14.667h2.667v12h16v-12h2.667v14.667zM4 4h24v8h-24v-8zM12.667 14.667h6.667c0.373 0 0.667 0.293 0.667 0.667v2h-8v-2c0-0.373 0.293-0.667 0.667-0.667zM6.667 6.667v2.667h18.667v-2.667h-18.667z"></path>
</symbol>
<symbol id="icon-map" viewBox="0 0 37 32">
<path d="M36.064 0.192q0.512 0.352 0.512 0.96v25.12q0 0.384-0.192 0.64t-0.512 0.416l-11.456 4.576q-0.416 0.192-0.832 0l-11.008-4.384-11.008 4.384q-0.16 0.096-0.416 0.096-0.352 0-0.64-0.192-0.512-0.352-0.512-0.96v-25.12q0-0.384 0.192-0.672t0.512-0.384l11.456-4.576q0.416-0.192 0.832 0l11.008 4.384 11.008-4.384q0.576-0.256 1.056 0.096zM13.152 2.592v22.688l10.272 4.128v-22.688zM2.272 6.496v22.656l9.728-3.872v-22.688zM34.272 25.504v-22.656l-9.696 3.872v22.688z"></path>
</symbol>
<symbol id="icon-user-circle" viewBox="0 0 32 32">
<path d="M16 2.667c-7.364 0-13.333 5.97-13.333 13.333v0c0 7.364 5.97 13.333 13.333 13.333v0c7.364 0 13.333-5.97 13.333-13.333v0c0-7.364-5.97-13.333-13.333-13.333v0zM9.427 24.373c0.573-1.2 4.067-2.373 6.573-2.373s6 1.173 6.573 2.373c-1.813 1.44-4.093 2.293-6.573 2.293s-4.76-0.853-6.573-2.293zM24.48 22.44c-1.907-2.32-6.533-3.107-8.48-3.107s-6.573 0.787-8.48 3.107c-1.36-1.773-2.187-4.013-2.187-6.44 0-5.88 4.787-10.667 10.667-10.667s10.667 4.787 10.667 10.667c0 2.427-0.827 4.667-2.187 6.44zM16 8c-2.587 0-4.667 2.080-4.667 4.667s2.080 4.667 4.667 4.667c2.587 0 4.667-2.080 4.667-4.667s-2.080-4.667-4.667-4.667zM16 14.667c-1.105 0-2-0.895-2-2v0c0-1.105 0.895-2 2-2v0c1.105 0 2 0.895 2 2v0c0 1.105-0.895 2-2 2v0z"></path>
</symbol>
<symbol id="icon-user" viewBox="0 0 27 32">
<path d="M21.44 13.984q0.832 0.256 1.6 0.704t1.6 1.28 1.408 2.080 0.992 3.072 0.384 4.224q0 2.752-1.792 4.704t-4.288 1.952h-15.264q-2.496 0-4.288-1.952t-1.792-4.704q0-2.336 0.384-4.224t0.992-3.072 1.408-2.080 1.6-1.28 1.6-0.704q-1.408-2.208-1.408-4.832 0-1.856 0.736-3.552t1.952-2.912 2.912-1.952 3.552-0.736 3.52 0.736 2.944 1.952 1.952 2.912 0.704 3.552q0 2.624-1.408 4.832zM13.728 2.272q-2.848 0-4.864 2.016t-2.016 4.864 2.016 4.832 4.864 2.016 4.832-2.016 2.016-4.832-2.016-4.864-4.832-2.016zM21.344 29.728q1.568 0 2.688-1.28t1.12-3.104q0-4.288-1.408-6.752t-4.032-2.56q-2.592 2.24-5.984 2.24t-6.016-2.24q-2.624 0.096-4.032 2.56t-1.408 6.752q0 1.824 1.12 3.104t2.688 1.28h15.264z"></path>
</symbol>
<symbol id="icon-twitter" viewBox="0 0 30 32">
<path d="M28.928 7.296q-1.184 1.728-2.88 2.976 0 0.256 0 0.736 0 2.336-0.672 4.64t-2.048 4.448-3.296 3.744-4.608 2.624-5.792 0.96q-4.832 0-8.832-2.592 0.608 0.064 1.376 0.064 4.032 0 7.168-2.464-1.888-0.032-3.36-1.152t-2.048-2.848q0.608 0.096 1.088 0.096 0.768 0 1.536-0.192-2.016-0.416-3.328-1.984t-1.312-3.68v-0.064q1.216 0.672 2.624 0.736-1.184-0.8-1.888-2.048t-0.704-2.752q0-1.568 0.8-2.912 2.176 2.656 5.248 4.256t6.656 1.76q-0.16-0.672-0.16-1.312 0-2.4 1.696-4.064t4.064-1.696q2.528 0 4.224 1.824 1.952-0.384 3.68-1.408-0.672 2.048-2.56 3.2 1.664-0.192 3.328-0.896z"></path>
</symbol>
<symbol id="icon-github" viewBox="0 0 27 32">
<path d="M13.728 2.272q3.712 0 6.88 1.856t4.992 4.992 1.824 6.88q0 4.48-2.624 8.064t-6.752 4.96q-0.48 0.096-0.704-0.128t-0.224-0.544q0-0.032 0-1.376t0-2.4q0-1.728-0.928-2.528 1.024-0.096 1.824-0.32t1.696-0.704 1.44-1.184 0.96-1.856 0.352-2.688q0-2.144-1.408-3.68 0.672-1.632-0.128-3.648-0.512-0.16-1.472 0.192t-1.632 0.8l-0.672 0.416q-1.664-0.48-3.424-0.48t-3.456 0.48q-0.256-0.192-0.736-0.48t-1.504-0.704-1.504-0.224q-0.8 2.016-0.16 3.648-1.408 1.536-1.408 3.68 0 1.504 0.384 2.656t0.928 1.888 1.44 1.184 1.664 0.704 1.824 0.32q-0.672 0.64-0.864 1.856-0.384 0.16-0.8 0.256t-1.024 0.096-1.152-0.384-0.992-1.12q-0.352-0.576-0.864-0.928t-0.896-0.448l-0.352-0.032q-0.384 0-0.512 0.064t-0.096 0.224 0.16 0.256 0.224 0.192l0.128 0.096q0.384 0.192 0.768 0.672t0.576 0.928l0.192 0.416q0.224 0.672 0.768 1.088t1.184 0.544 1.248 0.096 0.992-0.032l0.416-0.096q0 0.704 0 1.6t0.032 0.96q0 0.32-0.256 0.544t-0.704 0.128q-4.128-1.376-6.752-4.96t-2.624-8.064q0-3.744 1.856-6.88t4.96-4.992 6.912-1.856zM5.184 21.984q0.064-0.128-0.096-0.224-0.192-0.032-0.256 0.032-0.032 0.128 0.128 0.224t0.224-0.032zM5.76 22.592q0.128-0.096-0.032-0.288-0.192-0.16-0.288-0.064-0.128 0.096 0.032 0.288t0.288 0.064zM6.272 23.392q0.192-0.128 0-0.352-0.128-0.224-0.288-0.096-0.16 0.096 0 0.32t0.288 0.128zM7.040 24.128q0.128-0.128-0.064-0.32-0.224-0.224-0.352-0.064-0.16 0.16 0.064 0.352 0.192 0.192 0.352 0.032zM8.064 24.576q0.032-0.192-0.256-0.288-0.256-0.064-0.32 0.128t0.224 0.288q0.256 0.096 0.352-0.128zM9.184 24.672q0-0.224-0.32-0.192-0.288 0-0.288 0.192 0 0.224 0.32 0.192 0.288 0 0.288-0.192zM10.208 24.512q-0.032-0.224-0.32-0.16-0.288 0.032-0.256 0.256t0.32 0.128 0.256-0.224z"></path>
</symbol>
<symbol id="icon-repo" viewBox="0 0 32 32">
<path d="M17.333 18.667c-4.48 0-5.947 1.8-6.427 2.987 1.427 0.613 2.427 2.027 2.427 3.68 0 2.209-1.791 4-4 4v0c-2.209 0-4-1.791-4-4v0c0-1.747 1.107-3.227 2.667-3.773v-11.12c-1.56-0.547-2.667-2.027-2.667-3.773 0-2.209 1.791-4 4-4v0c2.209 0 4 1.791 4 4v0c0 1.747-1.107 3.227-2.667 3.773v7.053c1.173-0.867 2.88-1.493 5.333-1.493 3.56 0 4.747-1.787 5.133-2.973-1.44-0.6-2.467-2.027-2.467-3.693 0-2.209 1.791-4 4-4v0c2.209 0 4 1.791 4 4v0c0 1.787-1.173 3.333-2.787 3.813-0.347 1.907-1.64 5.52-6.547 5.52zM9.333 24c-0.736 0-1.333 0.597-1.333 1.333v0c0 0.736 0.597 1.333 1.333 1.333v0c0.736 0 1.333-0.597 1.333-1.333v0c0-0.736-0.597-1.333-1.333-1.333v0zM9.333 5.333c-0.736 0-1.333 0.597-1.333 1.333v0c0 0.736 0.597 1.333 1.333 1.333v0c0.736 0 1.333-0.597 1.333-1.333v0c0-0.736-0.597-1.333-1.333-1.333v0zM22.667 8c-0.736 0-1.333 0.597-1.333 1.333v0c0 0.736 0.597 1.333 1.333 1.333v0c0.736 0 1.333-0.597 1.333-1.333v0c0-0.736-0.597-1.333-1.333-1.333v0z"></path>
</symbol>
<symbol id="icon-dev" viewBox="0 0 448 512">
<path d="M120.12 208.29c-3.88-2.9-7.77-4.35-11.65-4.35H91.03v104.47h17.45c3.88 0 7.77-1.45 11.65-4.35 3.88-2.9 5.82-7.25 5.82-13.06v-69.65c-.01-5.8-1.96-10.16-5.83-13.06zM404.1 32H43.9C19.7 32 .06 51.59 0 75.8v360.4C.06 460.41 19.7 480 43.9 480h360.2c24.21 0 43.84-19.59 43.9-43.8V75.8c-.06-24.21-19.7-43.8-43.9-43.8zM154.2 291.19c0 18.81-11.61 47.31-48.36 47.25h-46.4V172.98h47.38c35.44 0 47.36 28.46 47.37 47.28l.01 70.93zm100.68-88.66H201.6v38.42h32.57v29.57H201.6v38.41h53.29v29.57h-62.18c-11.16.29-20.44-8.53-20.72-19.69V193.7c-.27-11.15 8.56-20.41 19.71-20.69h63.19l-.01 29.52zm103.64 115.29c-13.2 30.75-36.85 24.63-47.44 0l-38.53-144.8h32.57l29.71 113.72 29.57-113.72h32.58l-38.46 144.8z"></path>
</symbol>
<symbol id="icon-discord" viewBox="0 0 24 24"><path d="M20.317 4.37a19.791 19.791 0 0 0-4.885-1.515.074.074 0 0 0-.079.037c-.21.375-.444.864-.608 1.25a18.27 18.27 0 0 0-5.487 0 12.64 12.64 0 0 0-.617-1.25.077.077 0 0 0-.079-.037A19.736 19.736 0 0 0 3.677 4.37a.07.07 0 0 0-.032.027C.533 9.046-.32 13.58.099 18.057a.082.082 0 0 0 .031.057 19.9 19.9 0 0 0 5.993 3.03.078.078 0 0 0 .084-.028 14.09 14.09 0 0 0 1.226-1.994.076.076 0 0 0-.041-.106 13.107 13.107 0 0 1-1.872-.892.077.077 0 0 1-.008-.128 10.2 10.2 0 0 0 .372-.292.074.074 0 0 1 .077-.01c3.928 1.793 8.18 1.793 12.062 0a.074.074 0 0 1 .078.01c.12.098.246.198.373.292a.077.077 0 0 1-.006.127 12.299 12.299 0 0 1-1.873.892.077.077 0 0 0-.041.107c.36.698.772 1.362 1.225 1.993a.076.076 0 0 0 .084.028 19.839 19.839 0 0 0 6.002-3.03.077.077 0 0 0 .032-.054c.5-5.177-.838-9.674-3.549-13.66a.061.061 0 0 0-.031-.03zM8.02 15.33c-1.183 0-2.157-1.085-2.157-2.419 0-1.333.956-2.419 2.157-2.419 1.21 0 2.176 1.096 2.157 2.42 0 1.333-.956 2.418-2.157 2.418zm7.975 0c-1.183 0-2.157-1.085-2.157-2.419 0-1.333.955-2.419 2.157-2.419 1.21 0 2.176 1.096 2.157 2.42 0 1.333-.946 2.418-2.157 2.418Z"/>
</symbol>
<symbol id="icon-codepen" viewBox="0 0 32 32">
<path d="M10.947 16l-1.773 1.187v-2.373l1.773 1.187zM15.293 13.093v-3.307l-5.547 3.707 2.467 1.653 3.080-2.053zM22.267 13.493l-5.56-3.707v3.307l3.080 2.053 2.48-1.653zM9.747 18.507l5.547 3.707v-3.307l-3.080-2.053-2.467 1.653zM16.707 18.907v3.307l5.56-3.707-2.48-1.653-3.080 2.053zM16 14.32l-2.507 1.68 2.507 1.68 2.507-1.68-2.507-1.68zM29.333 16c0 7.333-6 13.333-13.333 13.333s-13.333-6-13.333-13.333c0-7.333 6-13.333 13.333-13.333s13.333 6 13.333 13.333zM24.24 13.493c0-0.040 0-0.067 0-0.093l-0.027-0.133c-0.013-0.013-0.013-0.027-0.027-0.053l-0.053-0.107-0.053-0.080-0.040-0.040-0.040-0.027v-0.027l-0.053-0.027-0.013-0.013-7.533-5.013c-0.24-0.16-0.547-0.16-0.787 0l-7.547 5.013v0.013l-0.067 0.027c0 0.013 0 0.027 0 0.027l-0.040 0.027-0.040 0.040-0.013 0.040-0.040 0.040-0.080 0.16v0.067h-0.013l-0.013 0.067c0 0.027 0 0.053 0 0.093v5.013c0 0.040 0 0.067 0 0.093l0.013 0.067h0.013v0.067c0.013 0.013 0.013 0.027 0.027 0.053l0.053 0.107 0.053 0.080c0.013 0.013 0.027 0.027 0.040 0.040l0.040 0.027v0.027l0.053 0.027 0.013 0.013 7.547 5.027c0.107 0.080 0.253 0.107 0.387 0.107s0.28-0.040 0.4-0.107l7.6-5.067v-0.027l0.040-0.027 0.040-0.040 0.053-0.080 0.080-0.16v-0.067h0.013l0.013-0.067c0-0.027 0-0.053 0-0.093v-5.013zM22.827 17.187v-2.373l-1.773 1.187 1.773 1.187z"></path>
</symbol>
<symbol id="icon-goodreads" viewBox="0 0 32 32">
<path d="M22.667 17.027c-1.387 2.2-3.707 3.64-6.333 3.64-4.24 0-7.667-3.733-7.667-8.333s3.427-8.333 7.667-8.333c2.627 0 4.947 1.44 6.333 3.64v-3.64h1.333v16.333c0 7.28-4.613 7.667-8.667 7.667-3.333 0-5.267-2.253-5.827-5.333h1.347c0.48 2.333 1.867 4 4.48 4 2.96 0 7.333 0.067 7.333-6.333v0-3.307zM16.333 5.333c-3.493 0-6.333 3.133-6.333 7s2.84 7 6.333 7c3.493 0 6.333-3.133 6.333-7s-2.84-7-6.333-7z"></path>
</symbol>
<symbol id="icon-linkedin" viewBox="0 0 32 32">
<path d="M25.333 4c1.473 0 2.667 1.194 2.667 2.667v0 18.667c0 1.473-1.194 2.667-2.667 2.667v0h-18.667c-1.473 0-2.667-1.194-2.667-2.667v0-18.667c0-1.473 1.194-2.667 2.667-2.667v0h18.667zM24.667 24.667v-7.067c0-2.401-1.946-4.347-4.347-4.347v0c-1.133 0-2.453 0.693-3.093 1.733v-1.48h-3.72v11.16h3.72v-6.573c0-1.027 0.827-1.867 1.853-1.867 1.031 0 1.867 0.836 1.867 1.867v0 6.573h3.72zM9.173 11.413c1.237 0 2.24-1.003 2.24-2.24v0c0-1.24-1-2.253-2.24-2.253-1.244 0-2.253 1.009-2.253 2.253v0c0 1.24 1.013 2.24 2.253 2.24zM11.027 24.667v-11.16h-3.693v11.16h3.693z"></path>
</symbol>
<symbol id="icon-npm" viewBox="0 0 32 32">
<path d="M5.333 13.333v5.333h2.667v-4h1.333v4h1.333v-5.333h-5.333zM12 13.333v6.667h2.667v-1.333h2.667v-5.333h-5.333zM16 14.667v2.667h-1.333v-2.667h1.333zM18.667 13.333v5.333h2.667v-4h1.333v4h1.333v-4h1.333v4h1.333v-5.333h-8zM4 12h24v8h-12v1.333h-5.333v-1.333h-6.667v-8z"></path>
</symbol>
<symbol id="icon-rss-box" viewBox="0 0 32 32">
<path d="M6.667 4h18.667c1.473 0 2.667 1.194 2.667 2.667v0 18.667c0 1.473-1.194 2.667-2.667 2.667v0h-18.667c-1.473 0-2.667-1.194-2.667-2.667v0-18.667c0-1.473 1.194-2.667 2.667-2.667v0zM10 20c-1.105 0-2 0.895-2 2v0c0 1.105 0.895 2 2 2v0c1.105 0 2-0.895 2-2v0c0-1.105-0.895-2-2-2v0zM8 13.333v2.667c4.418 0 8 3.582 8 8v0h2.667c0-5.891-4.776-10.667-10.667-10.667v0zM8 8v2.667c7.364 0 13.333 5.97 13.333 13.333v0h2.667c0-8.837-7.163-16-16-16v0z"></path>
</symbol>
<symbol id="icon-mastodon" viewBox="0 0 32 32">
<path d="M27.92 18.667c-0.373 1.88-3.253 3.947-6.627 4.347-1.747 0.2-3.467 0.4-5.293 0.32-3-0.147-5.333-0.72-5.333-0.72v0.827c0.427 2.96 2.96 3.133 5.373 3.227 2.427 0.067 4.587-0.613 4.587-0.613l0.107 2.2c0 0-1.707 0.907-4.733 1.080-1.667 0.093-3.747-0.040-6.16-0.667-5.227-1.4-6.133-6.987-6.267-12.667l-0.013-4.573c0-5.787 3.773-7.48 3.773-7.48 1.933-0.88 5.213-1.28 8.627-1.28h0.080c3.413 0 6.693 0.4 8.627 1.28 0 0 3.773 1.693 3.773 7.48 0 0 0.053 4.28-0.52 7.24zM24 11.88c0-1.44-0.4-2.547-1.133-3.413-0.747-0.84-1.733-1.28-2.973-1.28-1.413 0-2.493 0.547-3.227 1.64l-0.667 1.173-0.667-1.173c-0.747-1.093-1.813-1.64-3.24-1.64-1.227 0-2.213 0.44-2.973 1.28-0.733 0.867-1.12 1.973-1.12 3.413v7.013h2.8v-6.813c0-1.413 0.6-2.16 1.813-2.16 1.333 0 2 0.867 2 2.573v3.72h2.76v-3.72c0-1.707 0.667-2.573 2.013-2.573 1.2 0 1.8 0.747 1.8 2.16v6.813h2.813v-7.013z"></path>
</symbol>
<symbol id="icon-palette" viewBox="0 0 32 32">
<path d="M16 29.333c-7.364 0-13.333-5.97-13.333-13.333v0c0-7.364 5.97-13.333 13.333-13.333v0c7.333 0 13.333 5.333 13.333 12 0 4.418-3.582 8-8 8v0h-2.4c-0.4 0-0.667 0.267-0.667 0.667 0 0.133 0.133 0.267 0.133 0.4 0.533 0.667 0.8 1.467 0.8 2.267 0.133 1.867-1.333 3.333-3.2 3.333zM16 5.333c-5.891 0-10.667 4.776-10.667 10.667v0c0 5.891 4.776 10.667 10.667 10.667v0c0.4 0 0.667-0.267 0.667-0.667 0-0.267-0.133-0.4-0.133-0.533-0.533-0.667-0.8-1.333-0.8-2.133 0-1.867 1.467-3.333 3.333-3.333h2.267c2.946 0 5.333-2.388 5.333-5.333v0c0-5.2-4.8-9.333-10.667-9.333zM8.667 13.333c1.067 0 2 0.933 2 2s-0.933 2-2 2c-1.067 0-2-0.933-2-2s0.933-2 2-2zM12.667 8c1.067 0 2 0.933 2 2s-0.933 2-2 2c-1.067 0-2-0.933-2-2s0.933-2 2-2zM19.333 8c1.067 0 2 0.933 2 2s-0.933 2-2 2c-1.067 0-2-0.933-2-2s0.933-2 2-2zM23.333 13.333c1.067 0 2 0.933 2 2s-0.933 2-2 2c-1.067 0-2-0.933-2-2s0.933-2 2-2z"></path>
</symbol>
<symbol id="icon-more" viewBox="0 0 32 32">
<path d="M16 2.667c7.364 0 13.333 5.97 13.333 13.333v0c0 7.364-5.97 13.333-13.333 13.333v0c-7.364 0-13.333-5.97-13.333-13.333v0c0-7.364 5.97-13.333 13.333-13.333v0zM16 5.333c-5.891 0-10.667 4.776-10.667 10.667v0c0 5.891 4.776 10.667 10.667 10.667v0c5.891 0 10.667-4.776 10.667-10.667v0c0-5.891-4.776-10.667-10.667-10.667v0zM16 14c1.105 0 2 0.895 2 2v0c0 1.105-0.895 2-2 2v0c-1.105 0-2-0.895-2-2v0c0-1.105 0.895-2 2-2v0zM10 14c1.105 0 2 0.895 2 2v0c0 1.105-0.895 2-2 2v0c-1.105 0-2-0.895-2-2v0c0-1.105 0.895-2 2-2v0zM22 14c1.105 0 2 0.895 2 2v0c0 1.105-0.895 2-2 2v0c-1.105 0-2-0.895-2-2v0c0-1.105 0.895-2 2-2v0z"></path>
</symbol>
<symbol id="icon-copy" viewBox="0 0 24 24">
<path d="M19,21H8V7H19M19,5H8A2,2 0 0,0 6,7V21A2,2 0 0,0 8,23H19A2,2 0 0,0 21,21V7A2,2 0 0,0 19,5M16,1H4A2,2 0 0,0 2,3V17H4V3H16V1Z"></path>
</symbol>
<symbol id="icon-arrow-up" viewBox="0 0 32 32">
<path d="M17.333 26.667h-2.667v-16l-7.333 7.333-1.893-1.893 10.56-10.56 10.56 10.56-1.893 1.893-7.333-7.333v16z"></path>
</symbol>
<symbol id="icon-external" viewBox="0 0 16 16">
<path fill-rule="evenodd" d="M8.636 3.5a.5.5 0 0 0-.5-.5H1.5A1.5 1.5 0 0 0 0 4.5v10A1.5 1.5 0 0 0 1.5 16h10a1.5 1.5 0 0 0 1.5-1.5V7.864a.5.5 0 0 0-1 0V14.5a.5.5 0 0 1-.5.5h-10a.5.5 0 0 1-.5-.5v-10a.5.5 0 0 1 .5-.5h6.636a.5.5 0 0 0 .5-.5z"/><path fill-rule="evenodd" d="M16 .5a.5.5 0 0 0-.5-.5h-5a.5.5 0 0 0 0 1h3.793L6.146 9.146a.5.5 0 1 0 .708.708L15 1.707V5.5a.5.5 0 0 0 1 0v-5z"/>
</symbol>
<symbol id="icon-monitor" viewBox="0 0 32 32">
<path d="M28 21.333h-24v-16h24zM28 2.667h-24c-1.48 0-2.667 1.187-2.667 2.667v16c0 1.48 1.2 2.667 2.667 2.667h9.333v2.667h-2.667v2.667h10.667v-2.667h-2.667v-2.667h9.333c1.48 0 2.667-1.187 2.667-2.667v-16c0-1.48-1.2-2.667-2.667-2.667zM20 7.333l-0.827 1.827-1.84 0.84 1.84 0.84 0.827 1.827 0.84-1.827 1.827-0.84-1.827-0.84-0.84-1.827zM14 10l-1.453 3.213-3.213 1.453 3.213 1.453 1.453 3.213 1.467-3.213 3.2-1.453-3.2-1.453-1.467-3.213z"></path>
</symbol>
</defs>
</svg>