<svg aria-hidden="true" style="position: absolute; width: 0; height: 0; overflow: hidden;" version="1.1" xmlns="http://www.w3.org/2000/svg" xmlns:xlink="http://www.w3.org/1999/xlink">
<defs>
<symbol id="icon-chart" viewBox="0 0 32 32">
<path d="M1.088 18.112q-1.344-0.32-1.024-1.792 0.32-1.344 1.728-1.024l3.136 0.768-1.664 2.56zM29.568 18.496q0.448-0.384 1.056-0.352t0.992 0.48q1.024 1.024-0.064 2.048l-8.064 7.232q-0.384 0.384-0.96 0.384-0.448 0-0.896-0.32l-9.152-7.040-1.728-0.448 1.6-2.56 1.152 0.256q0.384 0.128 0.512 0.256l8.448 6.528zM13.888 11.456l-11.2 17.6q-0.384 0.704-1.216 0.704-0.384 0-0.768-0.256-0.512-0.32-0.64-0.928t0.192-1.056l11.968-18.816q0.256-0.512 0.896-0.64 0.576-0.192 1.152 0.192l7.872 4.992 7.232-10.432q0.32-0.512 0.896-0.608t1.088 0.288q1.216 0.768 0.384 1.984l-8.064 11.584q-0.768 1.152-1.984 0.384z"></path>
</symbol>
<symbol id="icon-mail" viewBox="0 0 32 32">
<path d="M29.728 26.848v-13.696q-0.576 0.64-1.248 1.152-4.768 3.68-7.616 6.048-0.896 0.768-1.472 1.184t-1.536 0.896-1.824 0.416h-0.064q-0.832 0-1.824-0.416t-1.536-0.896-1.472-1.184q-2.816-2.368-7.616-6.048-0.672-0.512-1.248-1.152v13.696q0 0.224 0.192 0.416t0.384 0.16h26.304q0.224 0 0.384-0.16t0.192-0.416zM29.728 8.096v-0.448t-0.032-0.224-0.032-0.224-0.096-0.16-0.16-0.128-0.256-0.064h-26.304q-0.224 0-0.384 0.192t-0.192 0.384q0 3.008 2.656 5.088 3.424 2.688 7.136 5.632 0.128 0.096 0.64 0.544t0.8 0.672 0.8 0.544 0.896 0.512 0.768 0.16h0.064q0.352 0 0.768-0.16t0.896-0.512 0.8-0.544 0.8-0.672 0.64-0.544q3.712-2.944 7.168-5.632 0.96-0.768 1.792-2.080t0.832-2.336zM32 7.424v19.424q0 1.184-0.832 2.016t-2.016 0.864h-26.304q-1.152 0-2.016-0.864t-0.832-2.016v-19.424q0-1.184 0.832-2.016t2.016-0.832h26.304q1.184 0 2.016 0.832t0.832 2.016z"></path>
</symbol>
<symbol id="icon-folder" viewBox="0 0 32 32">
<path d="M30.528 11.2q1.024 0 1.28 0.384t0.192 1.152l-1.344 14.464q-0.064 0.768-0.384 1.184t-1.344 0.416h-25.792q-1.664 0-1.792-1.6l-1.344-14.464q-0.064-0.768 0.192-1.152t1.28-0.384h29.056zM29.44 7.68l0.32 1.28h-27.072l0.448-4.224q0.128-0.64 0.64-1.088t1.152-0.448h5.248q1.664 0 2.752 1.088l0.96 0.96q1.024 1.152 2.752 1.152h10.88q0.64 0 1.216 0.384t0.704 0.896z"></path>
</symbol>
<symbol id="icon-heart" viewBox="0 0 32 32">
<path d="M16 29.728q-0.448 0-0.8-0.32l-11.136-10.752q-0.16-0.16-0.48-0.48t-0.992-1.184-1.216-1.728-0.96-2.144-0.416-2.464q0-3.936 2.272-6.144t6.272-2.24q1.088 0 2.24 0.384t2.144 1.056 1.728 1.216 1.344 1.216q0.64-0.64 1.344-1.216t1.728-1.216 2.144-1.056 2.24-0.384q4 0 6.272 2.24t2.272 6.144q0 3.936-4.096 8.032l-11.104 10.72q-0.32 0.32-0.8 0.32z"></path>
</symbol>
<symbol id="icon-link" viewBox="0 0 30 32">
<path d="M26.016 21.728q0-0.736-0.512-1.216l-3.712-3.712q-0.512-0.512-1.216-0.512-0.768 0-1.28 0.576 0.032 0.032 0.32 0.32t0.384 0.384 0.288 0.352 0.224 0.448 0.064 0.48q0 0.736-0.512 1.216t-1.216 0.512q-0.256 0-0.48-0.064t-0.448-0.224-0.352-0.288-0.384-0.384-0.32-0.32q-0.608 0.544-0.608 1.28t0.512 1.216l3.68 3.712q0.48 0.48 1.216 0.48 0.704 0 1.216-0.48l2.624-2.592q0.512-0.512 0.512-1.184zM13.44 9.12q0-0.704-0.48-1.216l-3.68-3.68q-0.512-0.512-1.216-0.512t-1.216 0.48l-2.624 2.624q-0.512 0.48-0.512 1.184t0.512 1.216l3.712 3.712q0.48 0.48 1.216 0.48t1.28-0.544q-0.064-0.064-0.352-0.352t-0.384-0.384-0.256-0.32-0.224-0.448-0.064-0.512q0-0.704 0.48-1.216t1.216-0.48q0.288 0 0.512 0.064t0.448 0.224 0.352 0.256 0.384 0.384 0.32 0.352q0.576-0.544 0.576-1.312zM29.44 21.728q0 2.112-1.536 3.616l-2.624 2.592q-1.472 1.504-3.616 1.504-2.176 0-3.648-1.536l-3.68-3.68q-1.472-1.504-1.472-3.648 0-2.176 1.568-3.712l-1.568-1.568q-1.536 1.568-3.712 1.568-2.144 0-3.648-1.504l-3.712-3.712q-1.504-1.504-1.504-3.648t1.504-3.616l2.624-2.624q1.504-1.472 3.648-1.472t3.648 1.504l3.68 3.712q1.472 1.472 1.472 3.616 0 2.208-1.568 3.744l1.568 1.568q1.536-1.568 3.712-1.568 2.144 0 3.648 1.504l3.712 3.712q1.504 1.504 1.504 3.648z"></path>
</symbol>
<symbol id="icon-tags" viewBox="0 0 34 32">
<path d="M8 8q0-0.96-0.672-1.632t-1.6-0.64-1.632 0.64-0.672 1.632 0.672 1.6 1.632 0.672 1.6-0.672 0.672-1.6zM27.040 18.272q0 0.96-0.64 1.632l-8.768 8.768q-0.704 0.672-1.632 0.672-0.96 0-1.6-0.672l-12.768-12.768q-0.672-0.672-1.152-1.824t-0.48-2.080v-7.424q0-0.928 0.672-1.6t1.6-0.704h7.456q0.928 0 2.080 0.48t1.824 1.152l12.768 12.768q0.64 0.672 0.64 1.6zM33.92 18.272q0 0.96-0.672 1.632l-8.768 8.768q-0.704 0.672-1.632 0.672-0.64 0-1.056-0.256t-0.928-0.8l8.384-8.384q0.672-0.672 0.672-1.632 0-0.928-0.672-1.6l-12.768-12.768q-0.672-0.672-1.824-1.152t-2.080-0.48h4q0.928 0 2.080 0.48t1.824 1.152l12.768 12.768q0.672 0.672 0.672 1.6z"></path>
</symbol>
<symbol id="icon-tag" viewBox="0 0 27 32">
<path d="M8 8q0-0.96-0.672-1.632t-1.6-0.64-1.632 0.64-0.672 1.632 0.672 1.6 1.632 0.672 1.6-0.672 0.672-1.6zM27.040 18.272q0 0.96-0.64 1.632l-8.768 8.768q-0.704 0.672-1.632 0.672-0.96 0-1.6-0.672l-12.768-12.768q-0.672-0.672-1.152-1.824t-0.48-2.080v-7.424q0-0.928 0.672-1.6t1.6-0.704h7.456q0.928 0 2.080 0.48t1.824 1.152l12.768 12.768q0.64 0.672 0.64 1.6z"></path>
</symbol>
<symbol id="icon-visible" viewBox="0 0 32 32">
<path d="M29.728 17.152q-2.72-4.224-6.816-6.304 1.088 1.856 1.088 4 0 3.296-2.336 5.664t-5.664 2.336-5.664-2.336-2.336-5.664q0-2.144 1.088-4-4.096 2.080-6.816 6.304 2.4 3.648 5.984 5.824t7.744 2.176 7.776-2.176 5.952-5.824zM16.864 10.272q0-0.352-0.256-0.608t-0.608-0.224q-2.24 0-3.84 1.6t-1.6 3.808q0 0.352 0.256 0.608t0.608 0.256 0.608-0.256 0.256-0.608q0-1.536 1.088-2.624t2.624-1.088q0.352 0 0.608-0.256t0.256-0.608zM32 17.152q0 0.608-0.352 1.216-2.496 4.128-6.72 6.592t-8.928 2.464-8.928-2.464-6.72-6.592q-0.352-0.608-0.352-1.216t0.352-1.248q2.496-4.096 6.72-6.56t8.928-2.496 8.928 2.496 6.72 6.56q0.352 0.64 0.352 1.248z"></path>
</symbol>
<symbol id="icon-not-visible" viewBox="0 0 32 32">
<path d="M9.92 23.84l1.376-2.528q-1.536-1.12-2.432-2.816t-0.864-3.648q0-2.144 1.088-4-4.096 2.080-6.816 6.304 3.008 4.608 7.648 6.688zM16.864 10.272q0-0.352-0.256-0.608t-0.608-0.224q-2.24 0-3.84 1.6t-1.6 3.808q0 0.352 0.256 0.608t0.608 0.256 0.608-0.256 0.256-0.608q0-1.536 1.088-2.624t2.624-1.088q0.352 0 0.608-0.256t0.256-0.608zM23.328 6.88q0 0.128 0 0.16-1.888 3.36-5.632 10.112t-5.632 10.112l-0.896 1.6q-0.16 0.288-0.48 0.288-0.224 0-2.4-1.248-0.288-0.192-0.288-0.512 0-0.224 0.8-1.568-2.56-1.152-4.704-3.072t-3.744-4.384q-0.352-0.544-0.352-1.216t0.352-1.248q2.752-4.192 6.784-6.624t8.864-2.432q1.6 0 3.2 0.32l0.992-1.728q0.16-0.288 0.48-0.288 0.096 0 0.32 0.096t0.576 0.288 0.576 0.32 0.576 0.32 0.32 0.224q0.288 0.16 0.288 0.48zM24 14.848q0 2.496-1.408 4.544t-3.744 2.912l5.024-8.96q0.128 0.8 0.128 1.504zM32 17.152q0 0.608-0.352 1.216-0.704 1.152-1.952 2.592-2.688 3.072-6.208 4.768t-7.488 1.696l1.312-2.368q3.808-0.32 7.008-2.432t5.408-5.472q-2.080-3.2-5.056-5.248l1.12-2.016q1.696 1.152 3.264 2.72t2.592 3.296q0.352 0.608 0.352 1.248z"></path>
</symbol>
<symbol id="icon-pin" viewBox="0 0 21 32">
<path d="M8.576 15.424v-8q0-0.256-0.16-0.416t-0.416-0.16-0.416 0.16-0.16 0.416v8q0 0.256 0.16 0.416t0.416 0.16 0.416-0.16 0.16-0.416zM20.576 21.728q0 0.448-0.352 0.8t-0.8 0.32h-7.648l-0.928 8.64q-0.032 0.224-0.192 0.352t-0.352 0.16h-0.032q-0.48 0-0.544-0.48l-1.376-8.672h-7.2q-0.48 0-0.8-0.32t-0.352-0.8q0-2.208 1.408-3.968t3.168-1.76v-9.152q-0.928 0-1.6-0.672t-0.704-1.6 0.704-1.6 1.6-0.704h11.424q0.928 0 1.6 0.704t0.672 1.6-0.672 1.6-1.6 0.672v9.152q1.76 0 3.168 1.76t1.408 3.968z"></path>
</symbol>
<symbol id="icon-up-arrow" viewBox="0 0 32 32">
<path d="M30.048 23.776l-2.944 2.944q-0.352 0.32-0.832 0.32t-0.8-0.32l-9.472-9.504-9.472 9.504q-0.352 0.32-0.8 0.32t-0.8-0.32l-2.976-2.944q-0.352-0.352-0.352-0.832t0.352-0.8l13.248-13.248q0.352-0.32 0.8-0.32t0.8 0.32l13.248 13.248q0.352 0.352 0.352 0.8t-0.352 0.832z"></path>
</symbol>
<symbol id="icon-twitter" viewBox="0 0 30 32">
<path d="M28.928 7.296q-1.184 1.728-2.88 2.976 0 0.256 0 0.736 0 2.336-0.672 4.64t-2.048 4.448-3.296 3.744-4.608 2.624-5.792 0.96q-4.832 0-8.832-2.592 0.608 0.064 1.376 0.064 4.032 0 7.168-2.464-1.888-0.032-3.36-1.152t-2.048-2.848q0.608 0.096 1.088 0.096 0.768 0 1.536-0.192-2.016-0.416-3.328-1.984t-1.312-3.68v-0.064q1.216 0.672 2.624 0.736-1.184-0.8-1.888-2.048t-0.704-2.752q0-1.568 0.8-2.912 2.176 2.656 5.248 4.256t6.656 1.76q-0.16-0.672-0.16-1.312 0-2.4 1.696-4.064t4.064-1.696q2.528 0 4.224 1.824 1.952-0.384 3.68-1.408-0.672 2.048-2.56 3.2 1.664-0.192 3.328-0.896z"></path>
</symbol>
<symbol id="icon-github" viewBox="0 0 27 32">
<path d="M13.728 2.272q3.712 0 6.88 1.856t4.992 4.992 1.824 6.88q0 4.48-2.624 8.064t-6.752 4.96q-0.48 0.096-0.704-0.128t-0.224-0.544q0-0.032 0-1.376t0-2.4q0-1.728-0.928-2.528 1.024-0.096 1.824-0.32t1.696-0.704 1.44-1.184 0.96-1.856 0.352-2.688q0-2.144-1.408-3.68 0.672-1.632-0.128-3.648-0.512-0.16-1.472 0.192t-1.632 0.8l-0.672 0.416q-1.664-0.48-3.424-0.48t-3.456 0.48q-0.256-0.192-0.736-0.48t-1.504-0.704-1.504-0.224q-0.8 2.016-0.16 3.648-1.408 1.536-1.408 3.68 0 1.504 0.384 2.656t0.928 1.888 1.44 1.184 1.664 0.704 1.824 0.32q-0.672 0.64-0.864 1.856-0.384 0.16-0.8 0.256t-1.024 0.096-1.152-0.384-0.992-1.12q-0.352-0.576-0.864-0.928t-0.896-0.448l-0.352-0.032q-0.384 0-0.512 0.064t-0.096 0.224 0.16 0.256 0.224 0.192l0.128 0.096q0.384 0.192 0.768 0.672t0.576 0.928l0.192 0.416q0.224 0.672 0.768 1.088t1.184 0.544 1.248 0.096 0.992-0.032l0.416-0.096q0 0.704 0 1.6t0.032 0.96q0 0.32-0.256 0.544t-0.704 0.128q-4.128-1.376-6.752-4.96t-2.624-8.064q0-3.744 1.856-6.88t4.96-4.992 6.912-1.856zM5.184 21.984q0.064-0.128-0.096-0.224-0.192-0.032-0.256 0.032-0.032 0.128 0.128 0.224t0.224-0.032zM5.76 22.592q0.128-0.096-0.032-0.288-0.192-0.16-0.288-0.064-0.128 0.096 0.032 0.288t0.288 0.064zM6.272 23.392q0.192-0.128 0-0.352-0.128-0.224-0.288-0.096-0.16 0.096 0 0.32t0.288 0.128zM7.040 24.128q0.128-0.128-0.064-0.32-0.224-0.224-0.352-0.064-0.16 0.16 0.064 0.352 0.192 0.192 0.352 0.032zM8.064 24.576q0.032-0.192-0.256-0.288-0.256-0.064-0.32 0.128t0.224 0.288q0.256 0.096 0.352-0.128zM9.184 24.672q0-0.224-0.32-0.192-0.288 0-0.288 0.192 0 0.224 0.32 0.192 0.288 0 0.288-0.192zM10.208 24.512q-0.032-0.224-0.32-0.16-0.288 0.032-0.256 0.256t0.32 0.128 0.256-0.224z"></path>
</symbol>
<symbol id="icon-list" viewBox="0 0 32 32">
<path d="M6.848 25.152q0 1.408-0.992 2.432t-2.432 0.992-2.432-0.992-0.992-2.432 0.992-2.432 2.432-0.992 2.432 0.992 0.992 2.432zM6.848 16q0 1.44-0.992 2.432t-2.432 0.992-2.432-0.992-0.992-2.432 0.992-2.432 2.432-0.992 2.432 0.992 0.992 2.432zM32 23.424v3.424q0 0.224-0.16 0.416t-0.416 0.16h-21.696q-0.256 0-0.416-0.16t-0.16-0.416v-3.424q0-0.224 0.16-0.384t0.416-0.192h21.696q0.224 0 0.416 0.192t0.16 0.384zM6.848 6.848q0 1.44-0.992 2.432t-2.432 0.992-2.432-0.992-0.992-2.432 0.992-2.432 2.432-0.992 2.432 0.992 0.992 2.432zM32 14.272v3.456q0 0.224-0.16 0.384t-0.416 0.16h-21.696q-0.256 0-0.416-0.16t-0.16-0.384v-3.456q0-0.224 0.16-0.384t0.416-0.16h21.696q0.224 0 0.416 0.16t0.16 0.384zM32 5.152v3.424q0 0.224-0.16 0.384t-0.416 0.192h-21.696q-0.256 0-0.416-0.192t-0.16-0.384v-3.424q0-0.256 0.16-0.416t0.416-0.16h21.696q0.224 0 0.416 0.16t0.16 0.416z"></path>
</symbol>
<symbol id="icon-calendar" viewBox="0 0 30 32">
<path d="M2.272 29.728h25.152v-18.304h-25.152v18.304zM9.152 8v-5.152q0-0.256-0.16-0.416t-0.416-0.16h-1.152q-0.256 0-0.416 0.16t-0.16 0.416v5.152q0 0.256 0.16 0.416t0.416 0.16h1.152q0.256 0 0.416-0.16t0.16-0.416zM22.848 8v-5.152q0-0.256-0.16-0.416t-0.416-0.16h-1.12q-0.256 0-0.416 0.16t-0.16 0.416v5.152q0 0.256 0.16 0.416t0.416 0.16h1.12q0.256 0 0.416-0.16t0.16-0.416zM29.728 6.848v22.88q0 0.928-0.704 1.6t-1.6 0.672h-25.152q-0.928 0-1.6-0.672t-0.672-1.6v-22.88q0-0.928 0.672-1.6t1.6-0.672h2.304v-1.728q0-1.184 0.832-2.016t2.016-0.832h1.152q1.184 0 2.016 0.832t0.832 2.016v1.728h6.848v-1.728q0-1.184 0.864-2.016t2.016-0.832h1.12q1.184 0 2.048 0.832t0.832 2.016v1.728h2.272q0.928 0 1.6 0.672t0.704 1.6z"></path>
</symbol>
<symbol id="icon-sun" viewBox="0 0 31 32">
<path d="M17.344 2.688l-1.632 4.864-1.696-4.864q-0.224-0.704 0.096-1.344t0.992-0.896q0.96-0.32 1.792 0.352t0.448 1.888zM2.336 14.304l4.896 1.696-4.896 1.664q-0.672 0.256-1.344-0.096t-0.896-1.024q-0.32-0.96 0.384-1.792t1.856-0.448zM14.016 29.312l1.696-4.864 1.632 4.864q0.224 0.672-0.096 1.344t-0.992 0.896q-0.96 0.32-1.792-0.384t-0.448-1.856zM29.024 17.664l-4.896-1.664 4.896-1.696q0.672-0.224 1.344 0.096t0.896 1.024q0.32 0.96-0.384 1.824t-1.856 0.416zM7.424 5.408l2.272 4.64-4.64-2.304q-0.672-0.32-0.896-0.992t0.096-1.344q0.512-1.024 1.6-0.96t1.568 0.96zM5.056 24.224l4.64-2.272-2.272 4.64q-0.32 0.672-0.992 0.896t-1.376-0.096q-0.992-0.512-0.96-1.6t0.96-1.568zM23.936 26.592l-2.272-4.64 4.64 2.272q0.672 0.32 0.896 1.024t-0.096 1.344q-0.512 0.992-1.6 0.96t-1.568-0.96zM26.304 7.744l-4.64 2.304 2.272-4.64q0.32-0.704 0.992-0.928t1.376 0.128q0.992 0.512 0.96 1.6t-0.96 1.536zM15.712 23.52q-3.104 0-5.312-2.24t-2.208-5.28 2.208-5.312 5.312-2.208 5.28 2.208 2.176 5.312-2.176 5.28-5.28 2.24zM15.712 11.84q-1.728 0-2.976 1.216t-1.248 2.944 1.248 2.944 2.976 1.216 2.944-1.216 1.216-2.944-1.216-2.944-2.944-1.216z"></path>
</symbol>
<symbol id="icon-moon" viewBox="0 0 27 32">
<path d="M22.528 23.264q-0.96 0.16-1.952 0.16-3.264 0-6.016-1.6t-4.384-4.384-1.6-6.016q0-3.424 1.856-6.368-3.584 1.056-5.856 4.096t-2.304 6.848q0 2.304 0.928 4.448t2.432 3.616 3.648 2.464 4.448 0.896q2.56 0 4.864-1.088t3.936-3.072zM26.176 21.76q-1.696 3.616-5.088 5.792t-7.36 2.176q-2.784 0-5.344-1.088t-4.352-2.944-2.944-4.384-1.088-5.312q0-2.72 1.024-5.216t2.784-4.32 4.224-2.944 5.152-1.216q0.8-0.032 1.088 0.704 0.352 0.736-0.256 1.28-1.536 1.376-2.336 3.232t-0.832 3.904q0 2.656 1.312 4.864t3.552 3.552 4.864 1.312q2.112 0 4.064-0.928 0.736-0.32 1.28 0.224 0.256 0.256 0.32 0.608t-0.064 0.704z"></path>
</symbol>
<symbol id="icon-archive" viewBox="0 0 32 32">
<path d="M19.424 14.848q0-0.448-0.32-0.8t-0.832-0.32h-4.544q-0.48 0-0.8 0.32t-0.352 0.8 0.352 0.8 0.8 0.352h4.544q0.48 0 0.832-0.352t0.32-0.8zM29.728 11.424v17.152q0 0.448-0.352 0.8t-0.8 0.352h-25.152q-0.448 0-0.8-0.352t-0.352-0.8v-17.152q0-0.448 0.352-0.8t0.8-0.352h25.152q0.448 0 0.8 0.352t0.352 0.8zM30.848 3.424v4.576q0 0.448-0.32 0.8t-0.8 0.352h-27.456q-0.448 0-0.8-0.352t-0.32-0.8v-4.576q0-0.448 0.32-0.8t0.8-0.352h27.456q0.448 0 0.8 0.352t0.32 0.8z"></path>
</symbol>
<symbol id="icon-user" viewBox="0 0 32 32">
<path d="M27.2 23.904q-0.384-2.752-1.568-4.608t-3.296-2.112q-1.184 1.344-2.848 2.080t-3.488 0.736-3.488-0.736-2.848-2.080q-2.112 0.288-3.296 2.112t-1.568 4.608q1.888 2.688 4.832 4.256t6.368 1.568 6.368-1.568 4.832-4.256zM22.848 11.424q0-2.848-1.984-4.832t-4.864-2.016-4.832 2.016-2.016 4.832 2.016 4.864 4.832 1.984 4.864-1.984 1.984-4.864zM32 16q0 3.264-1.28 6.208t-3.392 5.12-5.088 3.392-6.24 1.28q-3.264 0-6.208-1.28t-5.12-3.392-3.392-5.12-1.28-6.208 1.28-6.208 3.392-5.12 5.12-3.392 6.208-1.28 6.208 1.28 5.12 3.392 3.392 5.12 1.28 6.208z"></path>
</symbol>
<symbol id="icon-linked-in" viewBox="0 0 27 32">
<path d="M4.224 25.248h4.128v-12.384h-4.128v12.384zM8.64 9.024q-0.032-0.928-0.672-1.536t-1.632-0.608-1.696 0.608-0.672 1.536q0 0.928 0.64 1.536t1.664 0.608v0q1.056 0 1.696-0.608t0.672-1.536zM19.072 25.248h4.128v-7.104q0-2.752-1.312-4.16t-3.424-1.408q-2.432 0-3.744 2.080h0.032v-1.792h-4.128q0.064 1.184 0 12.384h4.128v-6.944q0-0.672 0.128-0.992 0.256-0.608 0.8-1.056t1.312-0.448q2.080 0 2.080 2.816v6.624zM27.424 7.424v17.152q0 2.112-1.504 3.616t-3.648 1.536h-17.12q-2.144 0-3.648-1.536t-1.504-3.616v-17.152q0-2.112 1.504-3.616t3.648-1.536h17.12q2.144 0 3.648 1.536t1.504 3.616z"></path>
</symbol>
<symbol id="icon-copy" viewBox="0 0 24 24">
<path d="M19,21H8V7H19M19,5H8A2,2 0 0,0 6,7V21A2,2 0 0,0 8,23H19A2,2 0 0,0 21,21V7A2,2 0 0,0 19,5M16,1H4A2,2 0 0,0 2,3V17H4V3H16V1Z"></path>
</symbol>
<symbol id="icon-clock" viewBox="0 0 24 24" fill="none" stroke-width="0">
<path stroke-linecap="round" stroke-linejoin="round" stroke-width="2" d="M12 8v4l3 3m6-3a9 9 0 11-18 0 9 9 0 0118 0z"></path>
</symbol>
<symbol id="icon-dev" viewBox="0 0 448 512">
<path d="M120.12 208.29c-3.88-2.9-7.77-4.35-11.65-4.35H91.03v104.47h17.45c3.88 0 7.77-1.45 11.65-4.35 3.88-2.9 5.82-7.25 5.82-13.06v-69.65c-.01-5.8-1.96-10.16-5.83-13.06zM404.1 32H43.9C19.7 32 .06 51.59 0 75.8v360.4C.06 460.41 19.7 480 43.9 480h360.2c24.21 0 43.84-19.59 43.9-43.8V75.8c-.06-24.21-19.7-43.8-43.9-43.8zM154.2 291.19c0 18.81-11.61 47.31-48.36 47.25h-46.4V172.98h47.38c35.44 0 47.36 28.46 47.37 47.28l.01 70.93zm100.68-88.66H201.6v38.42h32.57v29.57H201.6v38.41h53.29v29.57h-62.18c-11.16.29-20.44-8.53-20.72-19.69V193.7c-.27-11.15 8.56-20.41 19.71-20.69h63.19l-.01 29.52zm103.64 115.29c-13.2 30.75-36.85 24.63-47.44 0l-38.53-144.8h32.57l29.71 113.72 29.57-113.72h32.58l-38.46 144.8z"></path>
</symbol>
<symbol id="icon-github-branch" viewBox="0 0 448 512">
<path d="M80 104c13.3 0 24-10.7 24-24s-10.7-24-24-24S56 66.7 56 80s10.7 24 24 24zm80-24c0 32.8-19.7 61-48 73.3v87.8c18.8-10.9 40.7-17.1 64-17.1h96c35.3 0 64-28.7 64-64v-6.7C307.7 141 288 112.8 288 80c0-44.2 35.8-80 80-80s80 35.8 80 80c0 32.8-19.7 61-48 73.3V160c0 70.7-57.3 128-128 128H176c-35.3 0-64 28.7-64 64v6.7c28.3 12.3 48 40.5 48 73.3c0 44.2-35.8 80-80 80s-80-35.8-80-80c0-32.8 19.7-61 48-73.3V352 153.3C19.7 141 0 112.8 0 80C0 35.8 35.8 0 80 0s80 35.8 80 80zm232 0c0-13.3-10.7-24-24-24s-24 10.7-24 24s10.7 24 24 24s24-10.7 24-24zM80 456c13.3 0 24-10.7 24-24s-10.7-24-24-24s-24 10.7-24 24s10.7 24 24 24z"></path>
</symbol>
<symbol id="icon-up" viewBox="0 0 26 32">
<path d="M0 15.872q0-0.832 0.576-1.408l12.512-12.48 12.48 12.48q0.576 0.576 0.576 1.408t-0.576 1.376q-0.576 0.576-1.376 0.576t-1.376-0.576l-7.776-7.776v20.544q0 0.8-0.576 1.376t-1.376 0.576q-0.832 0-1.408-0.576t-0.544-1.376v-20.544l-7.808 7.776q-0.576 0.576-1.376 0.576t-1.376-0.576q-0.576-0.544-0.576-1.376z"></path>
</symbol>
</defs>
</svg>
